<svg width="24" height="25" viewBox="0 0 24 25" fill="none" xmlns="http://www.w3.org/2000/svg">
<path d="M2.5 12.8477C2.5 8.36932 2.5 6.13015 3.89124 4.7389C5.28249 3.34766 7.52166 3.34766 12 3.34766C16.4783 3.34766 18.7175 3.34766 20.1088 4.7389C21.5 6.13015 21.5 8.36932 21.5 12.8477C21.5 17.326 21.5 19.5652 20.1088 20.9565C18.7175 22.3477 16.4783 22.3477 12 22.3477C7.52166 22.3477 5.28249 22.3477 3.89124 20.9565C2.5 19.5652 2.5 17.326 2.5 12.8477Z" stroke="#EBFFFF" stroke-width="1.5" stroke-linejoin="round"/>
<path d="M6.75 12.8327V9.85257C6.75 9.57048 6.98154 9.3418 7.26717 9.3418H9.24496C9.68486 9.3418 10.1369 9.41748 10.4648 9.70715C10.8155 10.017 11.1556 10.497 11.1387 11.1386C11.119 11.8868 10.5728 12.7711 9.77231 12.8327C8.97186 12.8943 8.2198 12.8327 6.75 12.8327ZM6.75 12.8327V15.8151C6.75 16.0972 6.98158 16.3257 7.26719 16.3284C8.40785 16.3393 9.07154 16.3798 9.77231 16.3259C10.5728 16.2643 11.119 15.38 11.1387 14.6318C11.1556 13.9902 10.8155 13.5102 10.4648 13.2004C10.1369 12.9107 9.68486 12.835 9.24496 12.835L6.75 12.8327ZM16.7946 15.8132C16.3563 16.2377 14.2219 17.077 13.4529 14.8682C13.3729 14.6477 13.3093 14.172 13.3465 13.8047M13.3465 13.8047C13.4098 13.1791 13.6859 12.3016 14.7106 11.9435C16.1782 11.4306 17.1011 12.8541 17.3402 13.8047H13.3465ZM14.5879 9.8486H15.9481" stroke="#EBFFFF" stroke-width="1.5" stroke-linecap="round" stroke-linejoin="round"/>
</svg>
