<svg width="24" height="25" viewBox="0 0 24 25" fill="none" xmlns="http://www.w3.org/2000/svg">
<path d="M2.5 12.8477C2.5 8.36932 2.5 6.13015 3.89124 4.7389C5.28249 3.34766 7.52166 3.34766 12 3.34766C16.4783 3.34766 18.7175 3.34766 20.1088 4.7389C21.5 6.13015 21.5 8.36932 21.5 12.8477C21.5 17.326 21.5 19.5652 20.1088 20.9565C18.7175 22.3477 16.4783 22.3477 12 22.3477C7.52166 22.3477 5.28249 22.3477 3.89124 20.9565C2.5 19.5652 2.5 17.326 2.5 12.8477Z" stroke="#EBFFFF" stroke-width="1.5" stroke-linejoin="round"/>
<path d="M16.9265 8.87402H13.9816C12.9378 8.87402 12.0894 9.71613 12.0817 10.7599L11.9964 22.2744M10.082 14.8494H14.8847" stroke="#EBFFFF" stroke-width="1.5" stroke-linecap="round" stroke-linejoin="round"/>
</svg>
