<svg width="24" height="25" viewBox="0 0 24 25" fill="none" xmlns="http://www.w3.org/2000/svg">
<path d="M7 10.8477V17.8477" stroke="#EBFFFF" stroke-width="1.5" stroke-linecap="round" stroke-linejoin="round"/>
<path d="M11 13.8477V17.8477M11 13.8477C11 12.1908 12.3431 10.8477 14 10.8477C15.6569 10.8477 17 12.1908 17 13.8477V17.8477M11 13.8477V10.8477" stroke="#EBFFFF" stroke-width="1.5" stroke-linecap="round" stroke-linejoin="round"/>
<path d="M7.00801 7.84766L6.99902 7.84766" stroke="#EBFFFF" stroke-width="2" stroke-linecap="round" stroke-linejoin="round"/>
<path d="M2.5 12.8477C2.5 8.36931 2.5 6.13014 3.89124 4.7389C5.28249 3.34766 7.52166 3.34766 12 3.34766C16.4783 3.34766 18.7175 3.34766 20.1088 4.7389C21.5 6.13014 21.5 8.36931 21.5 12.8477C21.5 17.326 21.5 19.5652 20.1088 20.9564C18.7175 22.3477 16.4783 22.3477 12 22.3477C7.52166 22.3477 5.28249 22.3477 3.89124 20.9564C2.5 19.5652 2.5 17.326 2.5 12.8477Z" stroke="#EBFFFF" stroke-width="1.5" stroke-linejoin="round"/>
</svg>
