<svg width="108" height="40" viewBox="0 0 108 40" fill="none" xmlns="http://www.w3.org/2000/svg">
<g clip-path="url(#clip0_184_2417)">
<path d="M13.5083 31.4933V11.1696C13.5083 11.0134 13.458 10.885 13.3576 10.7846C13.2572 10.6842 13.1288 10.606 12.9726 10.5502C12.8275 10.4833 12.6712 10.4386 12.5038 10.4163C12.3364 10.394 12.1857 10.3828 12.0518 10.3828H11.3654C11.2092 10.3828 11.0808 10.3828 10.9804 10.3828C10.8799 10.3828 10.7851 10.3716 10.6958 10.3493C10.5618 10.3493 10.4949 10.3103 10.4949 10.2321C10.4949 10.1094 10.5618 10.0312 10.6958 9.99777C11.0641 9.9308 11.3989 9.88058 11.7002 9.8471C12.0127 9.81361 12.3197 9.79129 12.621 9.78013C12.9223 9.75781 13.2237 9.74665 13.525 9.74665C13.8375 9.73549 14.1779 9.71317 14.5462 9.67969C14.602 9.67969 14.7248 9.67411 14.9145 9.66294C15.1154 9.64062 15.3498 9.6183 15.6176 9.59598C15.8967 9.57366 16.1868 9.55134 16.4882 9.52902C16.8007 9.49553 17.0909 9.46763 17.3587 9.44531C17.6377 9.41183 17.8777 9.38393 18.0786 9.36161C18.2795 9.33928 18.4134 9.32254 18.4804 9.31138C18.804 9.26674 19.1556 9.23326 19.5351 9.21094C19.9257 9.17745 20.3107 9.16071 20.6902 9.16071C21.8509 9.16071 22.9 9.3058 23.8375 9.59598C24.7862 9.88616 25.5953 10.2991 26.265 10.8348C26.9346 11.3705 27.448 12.0123 27.8051 12.76C28.1734 13.5078 28.3576 14.3393 28.3576 15.2545C28.3576 15.9799 28.2795 16.6663 28.1232 17.3136C27.967 17.9498 27.6601 18.5748 27.2025 19.1886C26.9792 19.4788 26.7393 19.7299 26.4826 19.942C26.2371 20.1429 25.9804 20.327 25.7125 20.4944C25.4558 20.6618 25.188 20.8181 24.9089 20.9632C24.6299 21.1083 24.3509 21.2701 24.0719 21.4487C23.9938 21.4933 23.9547 21.5714 23.9547 21.683C23.9547 21.7054 23.9826 21.7723 24.0384 21.8839C24.7973 22.8103 25.5339 23.7533 26.2482 24.7132C26.9625 25.673 27.6545 26.6607 28.3241 27.6763C28.6366 28.1116 28.9826 28.5525 29.3621 28.9989C29.7527 29.4453 30.1433 29.8638 30.5339 30.2545C30.746 30.4665 30.9636 30.6674 31.1868 30.8571C31.4101 31.0469 31.6667 31.231 31.9569 31.4096C32.2583 31.577 32.6098 31.7388 33.0116 31.8951C33.4134 32.0402 33.8933 32.1685 34.4513 32.2801C34.5964 32.3248 34.7192 32.375 34.8197 32.4308C34.9313 32.4754 34.9871 32.548 34.9871 32.6484C34.9871 32.8493 34.9201 32.9554 34.7862 32.9665C34.7638 32.9888 34.7136 33 34.6355 33C34.5685 33 34.4848 33 34.3844 33H33.9491C33.7259 33 33.458 33 33.1455 33C32.8442 32.9888 32.5205 32.9833 32.1746 32.9833C31.8397 32.9721 31.4938 32.9609 31.1366 32.9498C30.7795 32.9386 30.4502 32.9275 30.1489 32.9163C29.7025 32.894 29.2839 32.8549 28.8933 32.7991C28.5027 32.7433 28.1121 32.5871 27.7214 32.3304C27.4647 32.2076 27.1969 31.9955 26.9179 31.6942C26.6388 31.3817 26.3766 31.0469 26.131 30.6897C25.8297 30.2879 25.506 29.8415 25.1601 29.3504C24.8252 28.8594 24.4848 28.3627 24.1388 27.8605C23.7929 27.3583 23.4525 26.8672 23.1176 26.3873C22.794 25.9074 22.4926 25.4721 22.2136 25.0815C21.9458 24.6797 21.717 24.3449 21.5272 24.077C21.3487 23.798 21.2315 23.6138 21.1757 23.5246C21.131 23.4576 21.0473 23.3404 20.9246 23.173C20.813 23.0056 20.6902 22.8382 20.5563 22.6708C20.4223 22.4922 20.2884 22.3359 20.1545 22.202C20.0205 22.0569 19.9201 21.9788 19.8531 21.9676C19.5853 21.9342 19.2728 21.9118 18.9156 21.9007C18.5697 21.8895 18.2516 21.8839 17.9614 21.8839H17.5261C17.4034 21.8839 17.2806 21.9174 17.1578 21.9844C17.0462 22.0402 16.9681 22.1406 16.9234 22.2857V30.1875C16.9234 30.3214 16.929 30.4777 16.9402 30.6562C16.9625 30.8348 16.9904 31.0078 17.0239 31.1752C17.0574 31.3426 17.102 31.4989 17.1578 31.644C17.2136 31.7779 17.2806 31.8728 17.3587 31.9286C17.5038 32.029 17.7493 32.1183 18.0953 32.1964C18.4413 32.2634 18.804 32.3192 19.1835 32.3638C19.5741 32.3973 19.9424 32.4252 20.2884 32.4475C20.6455 32.4699 20.8967 32.481 21.0417 32.481C21.1422 32.481 21.2092 32.5257 21.2426 32.615C21.2761 32.7042 21.2929 32.7935 21.2929 32.8828C21.2929 33.0056 21.265 33.0781 21.2092 33.1004C21.1645 33.1339 21.0697 33.1507 20.9246 33.1507C20.746 33.1507 20.4614 33.1395 20.0708 33.1172C19.6801 33.106 19.2672 33.0893 18.8319 33.067C18.4078 33.0558 18.0116 33.0391 17.6433 33.0167C17.2862 33.0056 17.0462 33 16.9234 33H11.7337C11.6891 33 11.6165 33 11.5161 33C11.4156 32.9888 11.304 32.9833 11.1813 32.9833C11.0585 32.9721 10.9357 32.9665 10.813 32.9665C10.6902 32.9554 10.5842 32.9498 10.4949 32.9498C10.3721 32.9275 10.2717 32.9163 10.1935 32.9163C10.1266 32.9051 10.0931 32.8382 10.0931 32.7154C10.0931 32.6373 10.1154 32.5815 10.1601 32.548C10.2047 32.5033 10.3163 32.4531 10.4949 32.3973C10.7069 32.3527 10.9748 32.3304 11.2984 32.3304C11.6333 32.3192 11.9569 32.2913 12.2694 32.2467C12.5819 32.202 12.8554 32.1295 13.0897 32.029C13.3353 31.9174 13.4748 31.7388 13.5083 31.4933ZM16.9234 10.2991V21.0469C16.9234 21.1585 16.9569 21.2533 17.0239 21.3315C17.0909 21.4096 17.1634 21.4487 17.2415 21.4487H17.9112C18.2906 21.4487 18.6924 21.4319 19.1165 21.3984C19.5406 21.365 19.881 21.3203 20.1377 21.2645C20.4391 21.1864 20.7404 21.0636 21.0417 20.8962C21.3431 20.7176 21.6277 20.5223 21.8955 20.3103C22.1634 20.0871 22.4145 19.8527 22.6489 19.6071C22.8833 19.3504 23.0897 19.1049 23.2683 18.8705C23.458 18.6027 23.6255 18.3571 23.7705 18.1339C23.9156 17.9107 24.0384 17.6763 24.1388 17.4308C24.2505 17.1853 24.3342 16.9118 24.39 16.6105C24.4569 16.298 24.5072 15.9297 24.5406 15.5056C24.5406 14.9141 24.496 14.3895 24.4067 13.9319C24.3174 13.4632 24.1723 13.0391 23.9714 12.6596C23.7817 12.2801 23.5417 11.9286 23.2516 11.6049C22.9614 11.2812 22.6154 10.9687 22.2136 10.6674C22.0797 10.5781 21.9234 10.4888 21.7449 10.3996C21.5775 10.3103 21.3989 10.2321 21.2092 10.1652C21.0194 10.0871 20.8241 10.0201 20.6232 9.96428C20.4223 9.90848 20.2326 9.86384 20.054 9.83036C19.9536 9.80803 19.7862 9.79687 19.5518 9.79687C19.3174 9.78571 19.1277 9.78013 18.9826 9.78013C18.8263 9.78013 18.631 9.78571 18.3967 9.79687C18.1623 9.79687 17.9335 9.81361 17.7103 9.8471C17.4982 9.88058 17.3141 9.93638 17.1578 10.0145C17.0016 10.0815 16.9234 10.1763 16.9234 10.2991ZM40.813 24.6295L43.6757 24.5123C44.1221 24.4788 44.4625 24.3728 44.6969 24.1942C44.9313 24.0045 45.1043 23.7812 45.2159 23.5246C45.3386 23.2567 45.4279 22.9665 45.4837 22.654C45.5507 22.3415 45.6455 22.0346 45.7683 21.7333C45.8018 21.5993 45.8576 21.5324 45.9357 21.5324C46.092 21.5324 46.1701 21.5714 46.1701 21.6496V22.3192C46.1701 22.7656 46.1478 23.2511 46.1031 23.7757C46.0697 24.2891 46.0529 24.7299 46.0529 25.0982C46.0529 25.4554 46.0808 25.8348 46.1366 26.2366C46.2036 26.6384 46.2371 27.0513 46.2371 27.4754C46.2371 27.5312 46.2315 27.6205 46.2203 27.7433C46.2092 27.8661 46.1924 27.9944 46.1701 28.1283C46.1478 28.2623 46.1143 28.3795 46.0697 28.4799C46.0362 28.5804 45.9859 28.6306 45.919 28.6306C45.7962 28.6306 45.7181 28.5748 45.6846 28.4632C45.6623 28.3404 45.64 28.2288 45.6176 28.1283C45.5953 27.9944 45.5563 27.8326 45.5005 27.6429C45.4447 27.4531 45.3833 27.2634 45.3163 27.0737C45.2493 26.8728 45.188 26.6942 45.1322 26.5379C45.0763 26.3817 45.0373 26.2757 45.015 26.2199C44.9145 26.019 44.7192 25.8627 44.429 25.7511C44.1388 25.6283 43.8096 25.5391 43.4413 25.4833C43.0842 25.4163 42.7103 25.3772 42.3197 25.3661C41.9402 25.3437 41.6054 25.3326 41.3152 25.3326H40.813C40.6344 25.3326 40.5228 25.3717 40.4781 25.4498C40.4335 25.5167 40.4112 25.6283 40.4112 25.7846V31.6607C40.4112 31.9955 40.5172 32.2076 40.7293 32.2969H45.8185C46.0418 32.2969 46.2705 32.2969 46.5049 32.2969C46.7505 32.2857 46.9123 32.2578 46.9904 32.2132C47.1578 32.1685 47.2973 32.0737 47.4089 31.9286C47.5317 31.7723 47.6322 31.6272 47.7103 31.4933C47.7438 31.4375 47.8051 31.3203 47.8944 31.1417C47.9949 30.9632 48.0953 30.7734 48.1958 30.5725C48.3074 30.3605 48.4078 30.1652 48.4971 29.9866C48.5976 29.808 48.6701 29.6908 48.7147 29.635C48.7817 29.5011 48.8933 29.4342 49.0496 29.4342C49.15 29.4342 49.2226 29.4732 49.2672 29.5513V32.0458C49.2672 32.1462 49.256 32.2411 49.2337 32.3304C49.2226 32.4085 49.2058 32.5089 49.1835 32.6317C49.1388 32.7879 49.083 32.894 49.0161 32.9498C48.9491 32.9944 48.8208 33.0391 48.631 33.0837C47.5038 33.0837 46.4324 33.0781 45.4168 33.067C44.4123 33.0558 43.3911 33.0446 42.3531 33.0335C41.3152 33.0335 40.2214 33.0279 39.0719 33.0167C37.9223 33.0056 36.6388 33 35.2214 33C35.0317 33 34.9368 32.9051 34.9368 32.7154C34.9368 32.5926 34.9982 32.4978 35.121 32.4308C35.2438 32.3638 35.3554 32.3192 35.4558 32.2969C35.5228 32.2969 35.6288 32.2913 35.7739 32.2801C35.9301 32.269 36.0976 32.2634 36.2761 32.2634C36.4547 32.2522 36.6277 32.2411 36.7951 32.2299C36.9625 32.2187 37.1076 32.2132 37.2304 32.2132C37.4982 32.2132 37.6322 32.0011 37.6322 31.577V19.2221C37.6322 19.0324 37.6098 18.798 37.5652 18.519C37.5317 18.24 37.4592 18.0056 37.3476 17.8158C37.2694 17.76 37.2304 17.7321 37.2304 17.7321L34.8866 17.4978C34.6746 17.4978 34.5685 17.3917 34.5685 17.1797C34.5685 17.1239 34.5797 17.0569 34.602 16.9788C34.6243 16.8895 34.6969 16.8449 34.8197 16.8449H37.5652C38.6366 16.8449 39.6913 16.8393 40.7293 16.8281C41.7672 16.817 42.7214 16.8114 43.592 16.8114H45.9692C46.1478 16.8114 46.3319 16.817 46.5217 16.8281C46.7226 16.8281 46.9123 16.8337 47.0909 16.8449C47.2694 16.8449 47.4313 16.8504 47.5763 16.8616C47.7214 16.8616 47.833 16.8616 47.9112 16.8616C47.9893 16.8728 48.0507 16.9118 48.0953 16.9788C48.14 17.0458 48.1679 17.1295 48.179 17.2299C48.2013 17.3192 48.2125 17.4141 48.2125 17.5145C48.2237 17.6038 48.2293 17.6763 48.2293 17.7321V20.4609C48.2293 20.5614 48.1902 20.6116 48.1121 20.6116C47.9893 20.6116 47.8944 20.5335 47.8275 20.3772C47.7717 20.2098 47.6824 20.0145 47.5596 19.7913C47.4592 19.5458 47.3364 19.3002 47.1913 19.0547C47.0462 18.8092 46.9402 18.6194 46.8732 18.4855C46.7728 18.2958 46.6165 18.1507 46.4045 18.0502C46.2036 17.9386 45.9748 17.8549 45.7181 17.7991C45.4614 17.7321 45.1991 17.6819 44.9313 17.6484C44.6634 17.615 44.429 17.5759 44.2281 17.5312C44.1612 17.5312 43.9882 17.5257 43.7092 17.5145C43.4301 17.5033 43.1121 17.4978 42.7549 17.4978C42.4089 17.4866 42.063 17.4754 41.717 17.4643C41.3822 17.4531 41.1199 17.4475 40.9301 17.4475C40.6958 17.4475 40.5507 17.5145 40.4949 17.6484C40.4391 17.7824 40.4112 17.9833 40.4112 18.2511V24.2277C40.4112 24.3281 40.4447 24.423 40.5116 24.5123C40.5897 24.5904 40.6902 24.6295 40.813 24.6295ZM51.9793 30.4721C51.9793 30.1708 52.0462 29.8694 52.1801 29.5681C52.3141 29.2667 52.4201 28.9933 52.4982 28.7478C52.4982 28.692 52.5094 28.5971 52.5317 28.4632C52.5652 28.3181 52.5987 28.1674 52.6322 28.0112C52.6656 27.8549 52.6991 27.7098 52.7326 27.5759C52.7661 27.4308 52.794 27.3248 52.8163 27.2578C52.8498 27.1239 52.9391 27.0569 53.0842 27.0569C53.2293 27.0569 53.313 27.1629 53.3353 27.375V27.76C53.3353 27.9386 53.3409 28.0614 53.352 28.1283C53.3632 28.1953 53.3799 28.2567 53.4022 28.3125C53.4915 28.8036 53.631 29.2835 53.8208 29.7522C54.0105 30.2098 54.256 30.6228 54.5574 30.9911C54.8587 31.3482 55.2159 31.6384 55.6288 31.8616C56.0529 32.0848 56.544 32.1964 57.102 32.1964C57.515 32.1964 57.9112 32.135 58.2906 32.0123C58.6701 31.8783 59.0049 31.6942 59.2951 31.4598C59.5964 31.2143 59.8308 30.9185 59.9982 30.5725C60.1768 30.2266 60.2661 29.8359 60.2661 29.4007C60.2661 28.731 60.1433 28.1786 59.8978 27.7433C59.6634 27.308 59.3509 26.9509 58.9603 26.6719C58.5808 26.3817 58.14 26.1417 57.6377 25.952C57.1467 25.7623 56.6389 25.5837 56.1143 25.4163C55.6009 25.2377 55.0931 25.0424 54.5909 24.8304C54.0998 24.6183 53.6589 24.3449 53.2683 24.01C52.8889 23.6641 52.5764 23.2344 52.3308 22.721C52.0964 22.2076 51.9793 21.5603 51.9793 20.779C51.9793 20.5223 52.0016 20.2879 52.0462 20.0759C52.102 19.8638 52.169 19.6741 52.2471 19.5067C52.3252 19.3281 52.4034 19.1719 52.4815 19.0379C52.5596 18.904 52.6322 18.7812 52.6991 18.6696C52.8665 18.4018 53.073 18.1395 53.3185 17.8828C53.5752 17.615 53.871 17.3806 54.2058 17.1797C54.5406 16.9788 54.9145 16.817 55.3275 16.6942C55.7516 16.5603 56.2092 16.4933 56.7002 16.4933C57.1578 16.4933 57.6322 16.5826 58.1232 16.7612C58.6143 16.9286 59.0551 17.1574 59.4458 17.4475C59.5685 17.5703 59.6913 17.6931 59.8141 17.8158C59.9368 17.9386 60.0596 18 60.1824 18C60.3498 18 60.4781 17.9498 60.5674 17.8493C60.6679 17.7377 60.7795 17.5926 60.9022 17.4141C60.9246 17.4029 60.9413 17.3917 60.9525 17.3806C60.9748 17.3694 60.9971 17.3638 61.0194 17.3638C61.0529 17.3638 61.0752 17.3917 61.0864 17.4475C61.1087 17.5033 61.1255 17.5703 61.1366 17.6484C61.1589 17.7154 61.1701 17.7879 61.1701 17.8661C61.1813 17.9442 61.1868 18 61.1868 18.0335C61.1868 18.067 61.1701 18.1786 61.1366 18.3683C61.1143 18.558 61.0752 18.7868 61.0194 19.0547C60.9748 19.3114 60.919 19.5904 60.852 19.8917C60.7962 20.1819 60.7293 20.4554 60.6511 20.7121C60.5842 20.9576 60.5116 21.1641 60.4335 21.3315C60.3665 21.4989 60.2996 21.5826 60.2326 21.5826C60.2103 21.5826 60.1935 21.577 60.1824 21.5658C60.1489 21.5435 60.1266 21.5212 60.1154 21.4989C60.0261 21.3315 59.9592 21.192 59.9145 21.0804C59.881 20.9687 59.8531 20.8627 59.8308 20.7623C59.8197 20.6618 59.8085 20.5614 59.7973 20.4609C59.7973 20.3605 59.7862 20.2433 59.7639 20.1094C59.7415 19.942 59.6857 19.7801 59.5964 19.6239C59.4625 19.2556 59.3118 18.9542 59.1444 18.7199C58.9882 18.4855 58.7705 18.2455 58.4915 18C58.3241 17.7991 58.1623 17.6484 58.006 17.548C57.8609 17.4364 57.6991 17.3583 57.5205 17.3136C57.342 17.2578 57.1411 17.2299 56.9179 17.2299C56.6947 17.2187 56.4212 17.2132 56.0976 17.2132C55.7851 17.2132 55.4949 17.2857 55.227 17.4308C54.9703 17.5759 54.7471 17.7656 54.5574 18C54.3676 18.2344 54.217 18.5078 54.1054 18.8203C54.0049 19.1217 53.9547 19.4342 53.9547 19.7578C53.9547 20.3047 54.0719 20.7567 54.3063 21.1138C54.5518 21.4598 54.8699 21.7556 55.2605 22.0011C55.6623 22.2355 56.1143 22.442 56.6165 22.6205C57.1188 22.7879 57.6266 22.9665 58.14 23.1562C58.6645 23.3348 59.1779 23.5469 59.6801 23.7924C60.1824 24.0268 60.6288 24.3393 61.0194 24.7299C61.4212 25.1094 61.7393 25.5837 61.9737 26.1529C62.2192 26.7221 62.342 27.4308 62.342 28.279C62.342 28.8482 62.2025 29.4118 61.9234 29.9699C61.6556 30.5279 61.2929 31.0469 60.8353 31.5268C60.6344 31.75 60.3777 31.9509 60.0652 32.1295C59.7527 32.308 59.4067 32.4643 59.0272 32.5982C58.6589 32.721 58.2627 32.8214 57.8386 32.8996C57.4257 32.9665 57.0183 33 56.6165 33C56.2147 33 55.746 32.9163 55.2103 32.7489C54.6746 32.5703 54.1668 32.3583 53.6868 32.1127C53.2069 31.856 52.7996 31.5826 52.4647 31.2924C52.1411 30.9911 51.9793 30.7176 51.9793 30.4721ZM67.8665 32.7321C67.8665 32.5647 67.9335 32.4475 68.0674 32.3806C68.2013 32.3025 68.3464 32.2411 68.5027 32.1964C68.5697 32.1964 68.6701 32.1908 68.804 32.1797C68.9491 32.1685 69.0998 32.1574 69.256 32.1462C69.4123 32.135 69.5574 32.1239 69.6913 32.1127C69.8252 32.1016 69.9201 32.096 69.9759 32.096C70.1991 32.0737 70.3107 31.9676 70.3107 31.7779V18.6362C70.3107 18.6027 70.3051 18.5469 70.294 18.4687C70.294 18.3906 70.2884 18.3069 70.2772 18.2176C70.2661 18.1283 70.2549 18.0391 70.2438 17.9498C70.2326 17.8605 70.2214 17.7991 70.2103 17.7656C70.2103 17.7433 70.2047 17.7098 70.1935 17.6652C70.1824 17.6205 70.1489 17.5871 70.0931 17.5647C70.0596 17.5647 70.0038 17.5647 69.9257 17.5647C69.8476 17.5536 69.7639 17.548 69.6746 17.548C69.5853 17.548 69.5016 17.548 69.4234 17.548C69.3453 17.5368 69.2895 17.5312 69.256 17.5312H68.6199C68.4413 17.5312 68.246 17.5368 68.0339 17.548C67.8219 17.5592 67.6098 17.5759 67.3978 17.5982C67.1969 17.6094 67.0127 17.6317 66.8453 17.6652C66.6779 17.6875 66.544 17.721 66.4435 17.7656C66.2538 17.8437 66.0585 18.0056 65.8576 18.2511C65.6679 18.4855 65.4781 18.7366 65.2884 19.0045C65.1098 19.2612 64.9313 19.49 64.7527 19.6908C64.5853 19.8917 64.429 19.9922 64.2839 19.9922C64.0496 19.9922 63.9324 19.8694 63.9324 19.6239V19.5402C64.0551 19.1272 64.1779 18.7143 64.3007 18.3013C64.4346 17.8884 64.5518 17.4699 64.6522 17.0458C64.6746 16.9453 64.6969 16.7891 64.7192 16.577C64.7527 16.3538 64.7973 16.1306 64.8531 15.9074C64.9089 15.673 64.9871 15.4721 65.0875 15.3047C65.188 15.1261 65.3219 15.0368 65.4893 15.0368C65.6232 15.0368 65.7293 15.0926 65.8074 15.2042C65.8855 15.3047 65.9525 15.4275 66.0083 15.5725C66.0752 15.7065 66.1478 15.8404 66.2259 15.9743C66.304 16.0971 66.4101 16.1752 66.544 16.2087C66.9904 16.2533 67.3587 16.2812 67.6489 16.2924C67.9391 16.2924 68.2348 16.2924 68.5362 16.2924H69.2393C70.4 16.2924 71.5328 16.2812 72.6377 16.2589C73.7426 16.2254 74.8755 16.2087 76.0362 16.2087H76.9067C77.1188 16.2087 77.2527 16.1306 77.3085 15.9743C77.3308 15.9408 77.3531 15.885 77.3755 15.8069C77.4089 15.7176 77.4368 15.6228 77.4592 15.5223C77.4926 15.4219 77.5205 15.327 77.5429 15.2377C77.5764 15.1373 77.6043 15.0703 77.6266 15.0368C77.6712 14.9699 77.7326 14.9308 77.8107 14.9196C77.8889 14.9085 77.9558 14.9029 78.0116 14.9029C78.1121 14.9029 78.179 14.9085 78.2125 14.9196C78.2572 14.9308 78.3018 14.9699 78.3464 15.0368C78.5139 15.2935 78.6478 15.5781 78.7482 15.8906C78.8487 16.192 78.9435 16.5045 79.0328 16.8281C79.1221 17.1406 79.2114 17.4531 79.3007 17.7656C79.39 18.0781 79.5016 18.3683 79.6355 18.6362C79.6578 18.692 79.6913 18.7589 79.7359 18.8371C79.7806 18.904 79.8252 18.9766 79.8699 19.0547C79.9145 19.1217 79.9536 19.183 79.9871 19.2388C80.0317 19.2946 80.0596 19.3337 80.0708 19.356C80.0819 19.4007 80.1043 19.49 80.1377 19.6239C80.1824 19.7467 80.2047 19.8638 80.2047 19.9754C80.2047 20.0424 80.188 20.0759 80.1545 20.0759C79.9313 20.0759 79.6913 19.9922 79.4346 19.8248C79.1891 19.6462 78.938 19.4453 78.6813 19.2221C78.4357 18.9877 78.1902 18.7589 77.9447 18.5357C77.7103 18.3013 77.4982 18.1228 77.3085 18C77.1857 17.9219 77.0072 17.8549 76.7728 17.7991C76.5384 17.7321 76.2873 17.6763 76.0194 17.6317C75.7516 17.5871 75.4949 17.5536 75.2493 17.5312C75.0038 17.5089 74.8141 17.4978 74.6801 17.4978H74.3621C74.2616 17.4978 74.1556 17.5033 74.044 17.5145C73.9324 17.5257 73.8264 17.548 73.7259 17.5815C73.6255 17.615 73.5418 17.6652 73.4748 17.7321C73.4078 17.7991 73.3743 17.8884 73.3743 18V26.7723C73.3743 27.2857 73.3576 27.7768 73.3241 28.2455C73.3018 28.7031 73.2906 29.1272 73.2906 29.5179C73.2906 29.6518 73.2906 29.8359 73.2906 30.0703C73.3018 30.3047 73.313 30.5502 73.3241 30.8069C73.3353 31.0525 73.3464 31.2868 73.3576 31.51C73.3799 31.7333 73.4022 31.9007 73.4246 32.0123H75.4335C75.6009 32.0123 75.7627 32.0737 75.919 32.1964C76.0752 32.308 76.1534 32.4587 76.1534 32.6484C76.1534 32.7042 76.1422 32.7768 76.1199 32.8661C76.0976 32.9554 76.0529 33 75.9859 33H69.6913H68.7371H68.1009C67.9781 33 67.9056 32.9833 67.8833 32.9498C67.8721 32.9163 67.8665 32.8437 67.8665 32.7321ZM81.5105 25.115C81.5105 24.4565 81.5719 23.8594 81.6947 23.3237C81.8174 22.7768 82.0016 22.269 82.2471 21.8002C82.4926 21.3315 82.794 20.8906 83.1511 20.4777C83.5194 20.0536 83.938 19.6406 84.4067 19.2388C84.775 18.9263 85.1712 18.6696 85.5953 18.4687C86.0194 18.2679 86.4547 18.1116 86.9011 18C87.3587 17.8772 87.8275 17.7935 88.3074 17.7489C88.7873 17.7042 89.2616 17.6819 89.7304 17.6819C90.1322 17.6819 90.5563 17.7433 91.0027 17.8661C91.4603 17.9888 91.9011 18.1507 92.3252 18.3516C92.7493 18.5413 93.14 18.7533 93.4971 18.9877C93.8543 19.2109 94.15 19.4286 94.3844 19.6406C95.1991 20.4107 95.8297 21.2478 96.2761 22.1518C96.7226 23.0446 96.9458 24.0268 96.9458 25.0982C96.9458 25.6786 96.9011 26.2143 96.8118 26.7054C96.7337 27.1853 96.6109 27.6373 96.4435 28.0614C96.2873 28.4855 96.0864 28.8873 95.8409 29.2667C95.6065 29.6462 95.333 30.0201 95.0205 30.3884C94.7304 30.7121 94.3844 31.0301 93.9826 31.3426C93.592 31.6551 93.1567 31.9342 92.6768 32.1797C92.1969 32.4252 91.6779 32.6261 91.1199 32.7824C90.573 32.9275 90.0038 33 89.4123 33C88.3967 33 87.4592 32.8661 86.5998 32.5982C85.7516 32.3192 84.9592 31.8337 84.2226 31.1417C82.4145 29.5681 81.5105 27.5592 81.5105 25.115ZM89.2616 18.4018C88.7594 18.4018 88.3297 18.4576 87.9726 18.5692C87.6266 18.6696 87.3141 18.8203 87.0351 19.0212C86.7672 19.2109 86.5217 19.4453 86.2984 19.7243C86.0752 20.0033 85.8464 20.3158 85.6121 20.6618C85.188 21.3203 84.9089 22.0234 84.775 22.7712C84.6411 23.5078 84.5741 24.2556 84.5741 25.0145C84.5741 25.885 84.6578 26.7556 84.8252 27.6261C85.0038 28.4855 85.3442 29.3225 85.8464 30.1373C85.9804 30.3717 86.1701 30.6172 86.4156 30.8739C86.6612 31.1194 86.929 31.3482 87.2192 31.5603C87.5094 31.7612 87.8051 31.9342 88.1065 32.0792C88.419 32.2132 88.7092 32.2801 88.977 32.2801C89.5016 32.2801 89.9592 32.1908 90.3498 32.0123C90.7516 31.8337 91.1087 31.5993 91.4212 31.3092C91.7337 31.0078 92.0072 30.6674 92.2415 30.2879C92.4871 29.8973 92.7214 29.4955 92.9447 29.0826C93.2237 28.5357 93.4246 27.9498 93.5473 27.3248C93.6813 26.6886 93.7482 26.0022 93.7482 25.2656C93.7482 24.7411 93.7092 24.25 93.631 23.7924C93.5641 23.3348 93.4525 22.894 93.2962 22.4699C93.1511 22.0458 92.967 21.6328 92.7438 21.231C92.5205 20.8181 92.2583 20.3996 91.9569 19.9754C91.6556 19.5179 91.2705 19.144 90.8018 18.8538C90.3442 18.5525 89.8308 18.4018 89.2616 18.4018Z" fill="#95979D"/>
</g>
<defs>
<clipPath id="clip0_184_2417">
<rect width="108" height="40" fill="white"/>
</clipPath>
</defs>
</svg>
