<svg width="99" height="40" viewBox="0 0 99 40" fill="none" xmlns="http://www.w3.org/2000/svg">
<path d="M36.9471 7.03309V11.6204H39.7312C40.5209 11.6204 41.1345 11.4192 41.5721 11.0168C42.0148 10.6144 42.2361 10.0511 42.2361 9.32676C42.2361 8.6125 42.0097 8.05166 41.557 7.64423C41.1043 7.2368 40.4806 7.03309 39.6859 7.03309H36.9471ZM36.9471 12.5409V17H35.9134V6.1126H39.8142C40.8755 6.1126 41.7205 6.40182 42.3493 6.98027C42.978 7.55369 43.2924 8.32579 43.2924 9.29658C43.2924 10.0662 43.0862 10.7251 42.6737 11.2734C42.2612 11.8166 41.6903 12.1838 40.961 12.3749L43.6017 17H42.3945L39.8896 12.5409H39.7312H36.9471ZM45.7973 6.1126H49.6679C50.7091 6.1126 51.5491 6.42697 52.1879 7.05572C52.8317 7.68447 53.1537 8.50687 53.1537 9.52293C53.1537 10.5239 52.8292 11.3362 52.1804 11.96C51.5315 12.5837 50.689 12.8955 49.6528 12.8955H46.831V17H45.7973V6.1126ZM46.831 7.03309V11.975H49.4189C50.2589 11.975 50.9153 11.7588 51.3881 11.3262C51.866 10.8886 52.1049 10.2875 52.1049 9.52293C52.1049 8.73825 51.8685 8.12711 51.3957 7.6895C50.9279 7.25189 50.269 7.03309 49.4189 7.03309H46.831ZM61.8078 17L60.6006 13.6651H56.0283L54.8211 17H53.7271L57.8014 6.1126H58.8275L62.8942 17H61.8078ZM58.2616 7.46315L56.3376 12.7748H60.2912L58.3597 7.46315H58.2616Z" fill="#95979D"/>
<path d="M4.67719 33.012L3.60934 36.7891H2.48215L0.971333 31.082H2.21321L3.10309 35.1042H3.16637L4.20655 31.082H5.21508L6.27502 35.1042H6.33831L7.22028 31.082H8.45424L6.93947 36.7891H5.8202L4.74047 33.012H4.67719ZM13.2754 35.7687V36.7891H9.49442V31.082H13.2754V32.1024H10.6888V33.4352H13.1291V34.3805H10.6888V35.7687H13.2754ZM18.1994 36.7891L17.7683 35.4285H15.7631L15.3241 36.7891H14.1258L16.1072 31.082H17.5113L19.4927 36.7891H18.1994ZM16.7361 32.2685L16.0202 34.507H17.5152L16.8073 32.2685H16.7361ZM24.1992 35.7489V36.7891H20.4657V31.082H21.6601V35.7489H24.1992ZM27.1101 36.7891H25.9157V32.1024H24.2032V31.082H28.8226V32.1024H27.1101V36.7891ZM34.8382 36.7891H33.6438V34.4042H31.073V36.7891H29.8786V31.082H31.073V33.3838H33.6438V31.082H34.8382V36.7891ZM39.4182 36.7891H38.3107V31.082H39.7187L41.2968 34.9183H41.368L42.95 31.082H44.354V36.7891H43.2466V32.9725H43.1833L41.7318 36.4608H40.9369L39.4814 32.9725H39.4182V36.7891ZM49.4046 36.7891L48.9735 35.4285H46.9683L46.5293 36.7891H45.3309L47.3124 31.082H48.7164L50.6979 36.7891H49.4046ZM47.9412 32.2685L47.2254 34.507H48.7204L48.0124 32.2685H47.9412ZM52.8138 36.7891H51.6708V31.082H52.6675L55.2936 34.6375H55.3648V31.082H56.5078V36.7891H55.5191L52.885 33.2177H52.8138V36.7891ZM61.5623 36.7891L61.1312 35.4285H59.1261L58.687 36.7891H57.4887L59.4701 31.082H60.8742L62.8556 36.7891H61.5623ZM60.099 32.2685L59.3831 34.507H60.8781L60.1702 32.2685H60.099ZM68.5825 34.4596C68.5825 35.2216 68.3558 35.8254 67.9023 36.271C67.4488 36.7139 66.8318 36.9354 66.0513 36.9354C65.2023 36.9354 64.5339 36.6678 64.0461 36.1325C63.5583 35.5973 63.3144 34.863 63.3144 33.9296C63.3144 33.0094 63.5583 32.2803 64.0461 31.7424C64.5339 31.2046 65.1931 30.9356 66.0236 30.9356C66.6986 30.9356 67.2642 31.1149 67.7203 31.4735C68.1765 31.8321 68.4467 32.308 68.5311 32.9013H67.3446C67.255 32.6112 67.0954 32.3871 66.866 32.2289C66.6367 32.0681 66.3558 31.9877 66.0236 31.9877C65.5622 31.9877 65.1983 32.1604 64.932 32.5058C64.6684 32.8485 64.5365 33.3192 64.5365 33.9177C64.5365 34.5268 64.6736 35.0067 64.9479 35.3573C65.2247 35.708 65.5991 35.8834 66.0711 35.8834C66.4613 35.8834 66.7804 35.7779 67.0282 35.567C67.2761 35.356 67.4066 35.0779 67.4197 34.7324L67.4237 34.6296H66.1858V33.7318H68.5825V34.4596ZM73.5105 35.7687V36.7891H69.7295V31.082H73.5105V32.1024H70.9239V33.4352H73.3642V34.3805H70.9239V35.7687H73.5105ZM75.8756 36.7891H74.7682V31.082H76.1762L77.7542 34.9183H77.8254L79.4074 31.082H80.8115V36.7891H79.7041V32.9725H79.6408L78.1893 36.4608H77.3943L75.9389 32.9725H75.8756V36.7891ZM85.9767 35.7687V36.7891H82.1957V31.082H85.9767V32.1024H83.3901V33.4352H85.8304V34.3805H83.3901V35.7687H85.9767ZM88.3774 36.7891H87.2344V31.082H88.2311L90.8572 34.6375H90.9284V31.082H92.0714V36.7891H91.0827L88.4486 33.2177H88.3774V36.7891ZM96.0383 36.7891H94.8439V32.1024H93.1314V31.082H97.7508V32.1024H96.0383V36.7891Z" fill="#95979D"/>
<path d="M0 28.5366H98.071" stroke="#95979D" stroke-width="0.124614"/>
<path d="M0 19.5024H24.6112" stroke="#95979D" stroke-width="0.124614"/>
<path d="M73.5225 19.5024H98.1337" stroke="#95979D" stroke-width="0.124614"/>
<path d="M1.72175 22.8365V24.2054H2.55249C2.78813 24.2054 2.97124 24.1453 3.10181 24.0252C3.23389 23.9052 3.29993 23.7371 3.29993 23.521C3.29993 23.3078 3.23239 23.1405 3.09731 23.0189C2.96223 22.8973 2.77612 22.8365 2.53898 22.8365H1.72175ZM1.72175 24.48V25.8105H1.41332V22.5619H2.57725C2.89394 22.5619 3.14609 22.6482 3.3337 22.8208C3.52131 22.9919 3.61511 23.2223 3.61511 23.5119C3.61511 23.7416 3.55358 23.9382 3.43051 24.1018C3.30743 24.2639 3.13708 24.3735 2.91946 24.4305L3.70742 25.8105H3.34721L2.59977 24.48H2.55249H1.72175ZM7.5706 25.5314V25.8105H5.60745V22.5619H7.5706V22.8411H5.91588V24.0095H7.4873V24.2841H5.91588V25.5314H7.5706ZM10.7269 25.8105H10.4207V22.8411H9.33104V22.5619H11.8165V22.8411H10.7269V25.8105ZM13.9844 25.8105H13.676V22.5619H13.9844V25.8105ZM16.373 22.8365V24.2054H17.2037C17.4394 24.2054 17.6225 24.1453 17.7531 24.0252C17.8851 23.9052 17.9512 23.7371 17.9512 23.521C17.9512 23.3078 17.8836 23.1405 17.7486 23.0189C17.6135 22.8973 17.4274 22.8365 17.1902 22.8365H16.373ZM16.373 24.48V25.8105H16.0646V22.5619H17.2285C17.5452 22.5619 17.7973 22.6482 17.985 22.8208C18.1726 22.9919 18.2664 23.2223 18.2664 23.5119C18.2664 23.7416 18.2048 23.9382 18.0818 24.1018C17.9587 24.2639 17.7883 24.3735 17.5707 24.4305L18.3587 25.8105H17.9985L17.251 24.48H17.2037H16.373ZM22.2219 25.5314V25.8105H20.2587V22.5619H22.2219V22.8411H20.5671V24.0095H22.1386V24.2841H20.5671V25.5314H22.2219ZM24.4911 25.8105H24.2007V22.5619H24.5541L25.7541 25.3895H25.7811L26.9766 22.5619H27.3323V25.8105H27.0441V23.1607H27.0216L25.9004 25.7948H25.6325L24.5114 23.1607H24.4911V25.8105ZM31.3756 25.5314V25.8105H29.4124V22.5619H31.3756V22.8411H29.7208V24.0095H31.2923V24.2841H29.7208V25.5314H31.3756ZM33.6583 25.8105H33.3544V22.5619H33.6583L35.5517 25.259H35.5809V22.5619H35.8849V25.8105H35.5877L33.6876 23.1112H33.6583V25.8105ZM39.1402 25.8105H38.834V22.8411H37.7444V22.5619H40.2298V22.8411H39.1402V25.8105Z" fill="#95979D"/>
<path d="M48.7666 22.5619H49.9215C50.2322 22.5619 50.4829 22.6557 50.6735 22.8433C50.8656 23.0309 50.9616 23.2763 50.9616 23.5795C50.9616 23.8782 50.8648 24.1206 50.6712 24.3067C50.4776 24.4928 50.2262 24.5858 49.917 24.5858H49.075V25.8105H48.7666V22.5619ZM49.075 22.8365V24.3112H49.8472C50.0979 24.3112 50.2937 24.2466 50.4348 24.1176C50.5774 23.987 50.6487 23.8076 50.6487 23.5795C50.6487 23.3453 50.5782 23.163 50.4371 23.0324C50.2975 22.9018 50.1009 22.8365 49.8472 22.8365H49.075ZM54.7629 25.5314V25.8105H52.8291V22.5619H53.1375V25.5314H54.7629ZM58.8017 25.8105L58.4415 24.8155H57.0772L56.717 25.8105H56.3906L57.6063 22.5619H57.9125L59.1259 25.8105H58.8017ZM57.7436 22.9649L57.1695 24.5498H58.3492L57.7729 22.9649H57.7436ZM61.214 25.8105H60.91V22.5619H61.214L63.1073 25.259H63.1366V22.5619H63.4405V25.8105H63.1434L61.2432 23.1112H61.214V25.8105Z" fill="#95979D"/>
<path d="M74.4801 25.8105L74.1199 24.8155H72.7556L72.3954 25.8105H72.0689L73.2847 22.5619H73.5908L74.8043 25.8105H74.4801ZM73.422 22.9649L72.8479 24.5498H74.0276L73.4513 22.9649H73.422ZM76.6806 22.5619H77.75C78.2408 22.5619 78.6205 22.7052 78.8892 22.9919C79.1578 23.2786 79.2922 23.6763 79.2922 24.1851C79.2922 24.6954 79.1578 25.0939 78.8892 25.3805C78.622 25.6672 78.2423 25.8105 77.75 25.8105H76.6806V22.5619ZM76.9891 22.8411V25.5314H77.732C78.1267 25.5314 78.4329 25.4128 78.6505 25.1757C78.8682 24.9385 78.977 24.6091 78.977 24.1873C78.977 23.7656 78.8682 23.4362 78.6505 23.199C78.4329 22.9604 78.1267 22.8411 77.732 22.8411H76.9891ZM82.4315 25.8105H82.1253L80.9096 22.5619H81.2338L82.2627 25.4076H82.2919L83.3208 22.5619H83.645L82.4315 25.8105ZM85.8297 25.8105H85.5213V22.5619H85.8297V25.8105ZM89.2111 25.8781C88.7699 25.8781 88.4209 25.7265 88.1643 25.4233C87.9076 25.1201 87.7793 24.7081 87.7793 24.1873C87.7793 23.6665 87.9076 23.2545 88.1643 22.9514C88.4209 22.6467 88.7691 22.4943 89.2089 22.4943C89.4295 22.4943 89.6329 22.5401 89.819 22.6317C90.0066 22.7217 90.1605 22.8478 90.2805 23.0099C90.4021 23.1705 90.4771 23.3521 90.5057 23.5547H90.1927C90.1462 23.3251 90.0314 23.139 89.8483 22.9964C89.6667 22.8523 89.4535 22.7803 89.2089 22.7803C88.8682 22.7803 88.5973 22.9078 88.3962 23.163C88.195 23.4166 88.0945 23.7581 88.0945 24.1873C88.0945 24.6181 88.195 24.9603 88.3962 25.2139C88.5973 25.4661 88.8689 25.5922 89.2111 25.5922C89.4618 25.5922 89.6764 25.5276 89.855 25.3986C90.0351 25.2695 90.1477 25.0984 90.1927 24.8853H90.5057C90.4591 25.1839 90.3173 25.4241 90.0802 25.6057C89.8445 25.7873 89.5548 25.8781 89.2111 25.8781ZM94.442 25.5314V25.8105H92.4788V22.5619H94.442V22.8411H92.7872V24.0095H94.3587V24.2841H92.7872V25.5314H94.442Z" fill="#95979D"/>
<circle cx="41.7457" cy="25.5457" r="0.373841" fill="#95979D"/>
<circle cx="65.1734" cy="25.5457" r="0.373841" fill="#95979D"/>
<circle cx="96.0772" cy="25.5457" r="0.373841" fill="#95979D"/>
</svg>
