<svg width="159" height="40" viewBox="0 0 159 40" fill="none" xmlns="http://www.w3.org/2000/svg">
<g clip-path="url(#clip0_184_2435)">
<path d="M14.2478 15.8178C14.1856 14.8222 13.9471 13.8785 13.5323 12.9867C13.1175 12.0948 12.516 11.3689 11.7278 10.8089C10.9397 10.2489 9.93376 9.96889 8.71006 9.96889C7.42413 9.96889 6.43895 10.3318 5.7545 11.0578C5.07006 11.7837 4.72784 12.6341 4.72784 13.6089C4.72784 14.48 4.97673 15.2163 5.4745 15.8178C5.97228 16.3985 6.61524 16.917 7.40339 17.3733C8.21228 17.8089 9.06265 18.2341 9.9545 18.6489C10.7427 19.0015 11.5308 19.3852 12.3189 19.8C13.1071 20.1941 13.8227 20.6504 14.4656 21.1689C15.1086 21.6874 15.6167 22.3096 15.9901 23.0356C16.3841 23.7407 16.5812 24.5911 16.5812 25.5867C16.5812 26.7274 16.2908 27.7437 15.7101 28.6356C15.1501 29.5274 14.3308 30.2326 13.2523 30.7511C12.1738 31.2489 10.8567 31.4978 9.30117 31.4978C8.36784 31.4978 7.40339 31.363 6.40784 31.0933C5.41228 30.8237 4.5308 30.4296 3.76339 29.9111L3.91895 31.2489H2.30117L2.1145 24.6222H3.32784C3.43154 26.4474 4.06413 27.837 5.22561 28.7911C6.3871 29.7244 7.7871 30.1911 9.42561 30.1911C10.2345 30.1911 10.9812 30.0459 11.6656 29.7556C12.3501 29.4444 12.8893 28.9985 13.2834 28.4178C13.6982 27.837 13.9056 27.1319 13.9056 26.3022C13.9056 25.3689 13.6567 24.5911 13.1589 23.9689C12.6612 23.3467 12.0182 22.8074 11.2301 22.3511C10.4419 21.8948 9.60191 21.4593 8.71006 21.0444C7.92191 20.6919 7.14413 20.3185 6.37673 19.9244C5.60932 19.5304 4.90413 19.0844 4.26117 18.5867C3.63895 18.0681 3.1308 17.4563 2.73673 16.7511C2.36339 16.0459 2.17673 15.1956 2.17673 14.2C2.17673 13.6607 2.27006 13.08 2.45673 12.4578C2.64339 11.8356 2.96487 11.2444 3.42117 10.6844C3.89821 10.1037 4.54117 9.63703 5.35006 9.28444C6.17969 8.91111 7.2271 8.72444 8.49228 8.72444C9.28043 8.72444 10.1619 8.83852 11.1367 9.06666C12.1323 9.27407 13.0552 9.68889 13.9056 10.3111L13.7812 8.97333H15.3678V15.8178H14.2478ZM19.0197 31V29.9733C19.642 29.9733 20.119 29.8074 20.4509 29.4756C20.7827 29.1437 21.0523 28.6874 21.2597 28.1067C21.4879 27.5259 21.7472 26.8519 22.0375 26.0844L28.4464 8.63111H29.1931L36.1309 26.3333C36.2968 26.7689 36.4835 27.3289 36.6909 28.0133C36.8983 28.6978 36.9812 29.2785 36.9397 29.7556C37.2923 29.7348 37.6449 29.7141 37.9975 29.6933C38.3501 29.6726 38.7027 29.6519 39.0553 29.6311V31H31.9309V29.9733C32.719 29.9526 33.2375 29.7763 33.4864 29.4444C33.7353 29.1126 33.8286 28.7185 33.7664 28.2622C33.7042 27.8059 33.6005 27.3911 33.4553 27.0178L32.3664 24.0933L24.2775 24.28L23.1886 27.6089C23.0435 28.1067 22.9086 28.5007 22.7842 28.7911C22.6805 29.0815 22.556 29.403 22.4109 29.7556C22.8257 29.7348 23.2301 29.7141 23.6242 29.6933C24.039 29.6726 24.4435 29.6519 24.8375 29.6311V31H19.0197ZM24.7442 22.9422H31.9309L29.722 17C29.4938 16.357 29.2553 15.7244 29.0064 15.1022C28.7783 14.4593 28.5501 13.8163 28.322 13.1733H28.2597C28.0523 13.7541 27.8346 14.3348 27.6064 14.9156C27.399 15.4963 27.1812 16.0874 26.9531 16.6889L24.7442 22.9422ZM41.6368 31V29.9733C42.4249 29.9319 42.9642 29.7556 43.2546 29.4444C43.5449 29.1126 43.7005 28.6667 43.7212 28.1067C43.7627 27.5259 43.7835 26.8726 43.7835 26.1467V12.7067C43.7835 12.2919 43.7938 11.8978 43.8146 11.5244C43.8353 11.1304 43.8561 10.7778 43.8768 10.4667C43.5035 10.4874 43.1301 10.5081 42.7568 10.5289C42.3835 10.5496 42.0101 10.5704 41.6368 10.5911V9.22222H48.6368V10.2489C47.8694 10.2696 47.3301 10.4459 47.019 10.7778C46.7286 11.1096 46.5627 11.5556 46.5212 12.1156C46.5005 12.6756 46.4901 13.3289 46.4901 14.0756V27.4222C46.4901 27.9822 46.4798 28.4593 46.459 28.8533C46.459 29.2474 46.4383 29.5793 46.3968 29.8489L52.2146 29.7556C53.5212 29.7348 54.5064 29.32 55.1701 28.5111C55.8546 27.7022 56.1968 26.3852 56.1968 24.56H57.2546L57.0679 31H41.6368ZM71.0553 31.4978C69.0849 31.4978 67.3945 31.1659 65.9842 30.5022C64.5738 29.8385 63.4227 28.957 62.5308 27.8578C61.6597 26.7378 61.0168 25.5037 60.6019 24.1556C60.1871 22.8074 59.9797 21.4593 59.9797 20.1111C59.9797 18.8044 60.1975 17.4874 60.633 16.16C61.0686 14.8118 61.7323 13.5778 62.6242 12.4578C63.5368 11.3378 64.6671 10.4356 66.0153 9.75111C67.3842 9.06666 68.9812 8.72444 70.8064 8.72444C72.7145 8.72444 74.3634 9.06666 75.753 9.75111C77.1427 10.4356 78.2834 11.3481 79.1753 12.4889C80.0879 13.6089 80.7619 14.8326 81.1975 16.16C81.6538 17.4874 81.8819 18.8044 81.8819 20.1111C81.8819 21.397 81.6642 22.7141 81.2286 24.0622C80.793 25.3896 80.119 26.6237 79.2064 27.7644C78.3145 28.8844 77.1945 29.7867 75.8464 30.4711C74.4982 31.1556 72.9012 31.4978 71.0553 31.4978ZM71.1175 30.2222C72.4034 30.2222 73.5234 29.9526 74.4775 29.4133C75.4316 28.8533 76.2197 28.117 76.8419 27.2044C77.4849 26.2711 77.9619 25.2444 78.273 24.1244C78.6049 22.9837 78.7708 21.843 78.7708 20.7022C78.7708 19.4163 78.5945 18.1407 78.2419 16.8756C77.8893 15.6104 77.3708 14.4593 76.6864 13.4222C76.0019 12.3852 75.1516 11.5556 74.1353 10.9333C73.1397 10.2904 71.999 9.96889 70.713 9.96889C69.4271 9.96889 68.2968 10.2489 67.3219 10.8089C66.3679 11.3689 65.5693 12.1156 64.9264 13.0489C64.3042 13.9615 63.8271 14.9881 63.4953 16.1289C63.1842 17.2489 63.0286 18.3896 63.0286 19.5511C63.0286 20.6919 63.1842 21.8844 63.4953 23.1289C63.8271 24.3733 64.3249 25.5348 64.9886 26.6133C65.6523 27.6919 66.4923 28.563 67.5086 29.2267C68.5249 29.8904 69.7279 30.2222 71.1175 30.2222ZM102.949 31.4978L90.5357 14.8222C90.349 14.5733 90.1624 14.3348 89.9757 14.1067C89.8098 13.8578 89.6335 13.6089 89.4468 13.36H89.4157L89.509 26.6756C89.509 27.1941 89.509 27.7126 89.509 28.2311C89.509 28.7496 89.4883 29.2578 89.4468 29.7556C89.8201 29.7348 90.1935 29.7141 90.5668 29.6933C90.9401 29.6726 91.3135 29.6519 91.6868 29.6311V31H85.9935V29.9733C86.6364 29.9733 87.0927 29.8385 87.3624 29.5689C87.6527 29.2785 87.8394 28.9467 87.9224 28.5733C88.0053 28.1793 88.0468 27.8267 88.0468 27.5156L88.0779 12.5511C88.0779 12.1985 88.0779 11.8459 88.0779 11.4933C88.0779 11.1407 88.0779 10.7985 88.0779 10.4667C87.7461 10.4874 87.4038 10.5081 87.0512 10.5289C86.6986 10.5496 86.3461 10.5704 85.9935 10.5911V9.22222H89.6957L101.362 24.84C101.632 25.1926 101.891 25.5452 102.14 25.8978C102.41 26.2504 102.679 26.603 102.949 26.9556H102.98L103.011 12.7067C103.011 12.2919 103.022 11.8978 103.042 11.5244C103.063 11.1304 103.084 10.7778 103.105 10.4667C102.731 10.4874 102.358 10.5081 101.985 10.5289C101.611 10.5496 101.238 10.5704 100.865 10.5911V9.22222H106.589V10.2489C105.822 10.2696 105.293 10.4459 105.002 10.7778C104.712 11.1096 104.556 11.5556 104.536 12.1156C104.515 12.6756 104.505 13.3289 104.505 14.0756L104.442 31.4978H102.949ZM121.051 31.4978C118.977 31.4978 117.141 31.0622 115.544 30.1911C113.947 29.32 112.702 28.0652 111.811 26.4267C110.919 24.7881 110.473 22.8385 110.473 20.5778C110.473 19.1052 110.691 17.6741 111.126 16.2844C111.582 14.8741 112.257 13.5985 113.148 12.4578C114.061 11.317 115.191 10.4148 116.539 9.75111C117.908 9.06666 119.495 8.72444 121.299 8.72444C122.046 8.72444 122.803 8.79704 123.571 8.94222C124.338 9.06666 125.074 9.2637 125.779 9.53333C126.505 9.78222 127.159 10.083 127.739 10.4356L127.615 8.94222H129.326V16.0667H128.206C128.123 14.76 127.771 13.6607 127.148 12.7689C126.547 11.8563 125.759 11.1615 124.784 10.6844C123.809 10.2074 122.72 9.96889 121.517 9.96889C120.418 9.96889 119.381 10.2178 118.406 10.7156C117.452 11.1926 116.602 11.877 115.855 12.7689C115.129 13.64 114.559 14.677 114.144 15.88C113.729 17.083 113.522 18.4104 113.522 19.8622C113.522 21.8119 113.874 23.5541 114.579 25.0889C115.285 26.6237 116.259 27.8267 117.504 28.6978C118.769 29.5689 120.221 30.0044 121.859 30.0044C122.419 30.0044 123 29.9526 123.602 29.8489C124.224 29.7452 124.836 29.5793 125.437 29.3511C126.059 29.1022 126.64 28.8015 127.179 28.4489V24.6533C127.179 24.1556 127.179 23.6578 127.179 23.16C127.179 22.6415 127.179 22.1333 127.179 21.6356C126.827 21.6563 126.464 21.677 126.091 21.6978C125.717 21.7185 125.354 21.7393 125.002 21.76V20.3911H132.033V21.4178C131.452 21.4178 131.006 21.5733 130.695 21.8844C130.384 22.1748 130.166 22.5378 130.042 22.9733C129.917 23.3881 129.845 23.803 129.824 24.2178C129.803 24.6119 129.793 24.9126 129.793 25.12V29.88H128.953C128.621 29.88 128.165 29.9422 127.584 30.0667C127.003 30.1911 126.339 30.3985 125.593 30.6889C124.95 30.9378 124.203 31.1348 123.353 31.28C122.502 31.4252 121.735 31.4978 121.051 31.4978ZM146.065 31.4978C144.094 31.4978 142.404 31.1659 140.994 30.5022C139.583 29.8385 138.432 28.957 137.54 27.8578C136.669 26.7378 136.026 25.5037 135.611 24.1556C135.197 22.8074 134.989 21.4593 134.989 20.1111C134.989 18.8044 135.207 17.4874 135.642 16.16C136.078 14.8118 136.742 13.5778 137.634 12.4578C138.546 11.3378 139.677 10.4356 141.025 9.75111C142.394 9.06666 143.991 8.72444 145.816 8.72444C147.724 8.72444 149.373 9.06666 150.762 9.75111C152.152 10.4356 153.293 11.3481 154.185 12.4889C155.097 13.6089 155.771 14.8326 156.207 16.16C156.663 17.4874 156.891 18.8044 156.891 20.1111C156.891 21.397 156.674 22.7141 156.238 24.0622C155.802 25.3896 155.128 26.6237 154.216 27.7644C153.324 28.8844 152.204 29.7867 150.856 30.4711C149.508 31.1556 147.911 31.4978 146.065 31.4978ZM146.127 30.2222C147.413 30.2222 148.533 29.9526 149.487 29.4133C150.441 28.8533 151.229 28.117 151.851 27.2044C152.494 26.2711 152.971 25.2444 153.282 24.1244C153.614 22.9837 153.78 21.843 153.78 20.7022C153.78 19.4163 153.604 18.1407 153.251 16.8756C152.899 15.6104 152.38 14.4593 151.696 13.4222C151.011 12.3852 150.161 11.5556 149.145 10.9333C148.149 10.2904 147.008 9.96889 145.722 9.96889C144.437 9.96889 143.306 10.2489 142.331 10.8089C141.377 11.3689 140.579 12.1156 139.936 13.0489C139.314 13.9615 138.837 14.9881 138.505 16.1289C138.194 17.2489 138.038 18.3896 138.038 19.5511C138.038 20.6919 138.194 21.8844 138.505 23.1289C138.837 24.3733 139.334 25.5348 139.998 26.6133C140.662 27.6919 141.502 28.563 142.518 29.2267C143.534 29.8904 144.737 30.2222 146.127 30.2222Z" fill="#95979D"/>
</g>
<defs>
<clipPath id="clip0_184_2435">
<rect width="158" height="40" fill="white" transform="translate(0.310059)"/>
</clipPath>
</defs>
</svg>
