<svg width="38" height="38" viewBox="0 0 38 38" fill="none" xmlns="http://www.w3.org/2000/svg">
<path d="M16.0806 1.66699C17.5533 0.194233 19.9418 0.194233 21.4146 1.66699L36.0806 16.333C37.5533 17.8058 37.5533 20.1942 36.0806 21.667L21.4146 36.333C19.9418 37.8058 17.5533 37.8058 16.0806 36.333L15.8032 36.0557V27.8379C27.6154 30.7405 29.8792 21.6367 29.3091 17.2051C28.2214 8.75275 19.4149 8.11709 15.8032 10.3008V9.08789H11.5698V31.8223L1.41455 21.667C-0.0582085 20.1942 -0.0582085 17.8058 1.41455 16.333L16.0806 1.66699ZM15.8032 14.6855C21.649 11.1378 23.5468 15.3238 23.7651 17.8604C24.289 25.7215 18.6757 24.7972 15.8032 23.3525V14.6855Z" fill="#95979D"/>
</svg>
