<svg width="201" height="40" viewBox="0 0 201 40" fill="none" xmlns="http://www.w3.org/2000/svg">
<g clip-path="url(#clip0_184_2445)">
<path d="M107.609 9.27458C107.609 9.37358 107.568 9.46432 107.485 9.54682C107.419 9.62932 107.329 9.67057 107.213 9.67057C107.164 9.67057 107.073 9.62932 106.941 9.54682C106.825 9.46432 106.677 9.37358 106.495 9.27458C106.33 9.17558 106.132 9.08484 105.901 9.00234C105.687 8.91984 105.439 8.87859 105.159 8.87859C104.779 8.87859 104.416 8.95284 104.07 9.10134C103.723 9.23333 103.385 9.40658 103.055 9.62107C102.742 9.83556 102.445 10.0831 102.164 10.3635C101.884 10.644 101.636 10.9163 101.422 11.1803C100.844 11.9227 100.292 12.6817 99.7636 13.4572C99.2521 14.2162 98.7572 14.9999 98.2787 15.8084C98.2952 17.1448 98.3199 18.44 98.3529 19.694C98.3859 20.9479 98.5592 22.2349 98.8727 23.5548C99.0541 24.3633 99.4089 24.9821 99.9369 25.411C100.481 25.8235 101.174 26.0298 102.016 26.0298C102.214 26.0298 102.412 26.0133 102.61 25.9803C102.808 25.9308 102.973 25.906 103.105 25.906C103.22 25.906 103.311 25.9473 103.377 26.0298C103.443 26.1123 103.476 26.2113 103.476 26.3268C103.476 26.4588 103.41 26.566 103.278 26.6485C103.163 26.7145 103.014 26.7722 102.833 26.8217C102.651 26.8712 102.461 26.9125 102.263 26.9455C102.082 26.9785 101.892 27.0032 101.694 27.0197C101.513 27.0362 101.364 27.0445 101.249 27.0445C100.506 27.0445 99.8874 26.8877 99.3924 26.5742C98.8974 26.2773 98.4932 25.8813 98.1797 25.3863C97.8662 24.8748 97.6269 24.2973 97.462 23.6538C97.3135 23.0104 97.2062 22.3504 97.1402 21.6739C97.0742 20.9974 97.0412 20.3375 97.0412 19.694C97.0412 19.034 97.0412 18.4483 97.0412 17.9368C96.3482 19.1742 95.647 20.3952 94.9375 21.5997C94.2446 22.8041 93.4278 23.9508 92.4874 25.0398C92.2729 25.2873 92.0336 25.543 91.7696 25.807C91.5222 26.0545 91.2499 26.2855 90.9529 26.5C90.6724 26.698 90.3672 26.8547 90.0372 26.9702C89.7237 27.1022 89.3855 27.1682 89.0225 27.1682C88.61 27.1682 88.2305 27.0857 87.884 26.9207C87.5375 26.7722 87.2158 26.5742 86.9188 26.3268C86.6218 26.0793 86.3578 25.7988 86.1268 25.4853C85.8793 25.1553 85.6566 24.8253 85.4586 24.4953C85.4256 24.4458 85.3844 24.3716 85.3349 24.2726C85.2689 24.1571 85.2029 24.0416 85.1369 23.9261C85.0544 23.7941 84.9884 23.6786 84.9389 23.5796C84.8894 23.4641 84.8646 23.3899 84.8646 23.3569C84.8646 23.2414 84.9059 23.1506 84.9884 23.0846C85.0709 23.0186 85.1616 22.9856 85.2606 22.9856C85.3761 22.9856 85.4751 23.0351 85.5576 23.1341C85.6401 23.2496 85.7143 23.3651 85.7803 23.4806C85.8298 23.5961 85.8958 23.7033 85.9783 23.8023C86.2588 24.2643 86.5971 24.7263 86.9931 25.1883C87.4055 25.6338 87.8758 25.939 88.4038 26.104C88.5688 26.1535 88.742 26.1783 88.9235 26.1783C89.1875 26.1783 89.4515 26.1205 89.7155 26.005C89.9795 25.8895 90.2269 25.741 90.4579 25.5595C90.6889 25.378 90.9034 25.18 91.1014 24.9656C91.2994 24.7511 91.4809 24.5448 91.6459 24.3468C92.5699 23.1919 93.3866 21.9627 94.0961 20.6592C94.822 19.3557 95.548 18.0605 96.274 16.7736L97.0412 15.3876V14.9421C97.0412 14.1667 97.0082 13.3664 96.9422 12.5415C96.8927 11.7 96.7277 10.9163 96.4472 10.1903C96.1337 9.34883 95.5233 8.92809 94.6158 8.92809C94.2693 8.92809 93.8651 9.01059 93.4031 9.17558C92.9576 9.32408 92.5286 9.49732 92.1161 9.69532C91.7201 9.89331 91.3737 10.0748 91.0767 10.2398C90.7797 10.3883 90.6064 10.4625 90.5569 10.4625C90.4579 10.4625 90.3672 10.4213 90.2847 10.3388C90.2187 10.2563 90.1857 10.1656 90.1857 10.0666C90.1857 9.96756 90.2269 9.87681 90.3094 9.79431C90.5404 9.61282 90.8457 9.41483 91.2252 9.20033C91.6046 8.98584 92.0006 8.78785 92.4131 8.60635C92.8421 8.40836 93.2546 8.25162 93.6506 8.13612C94.0631 8.00412 94.4178 7.93813 94.7148 7.93813C95.3088 7.93813 95.8615 8.10312 96.373 8.43311C96.8845 8.7466 97.2475 9.19208 97.462 9.76956C97.6929 10.347 97.8662 10.941 97.9817 11.5515C98.0972 12.162 98.1714 12.7725 98.2044 13.3829C98.5179 12.855 98.8974 12.261 99.3429 11.601C99.8049 10.941 100.316 10.3223 100.877 9.74482C101.438 9.16733 102.032 8.68885 102.659 8.30936C103.303 7.91338 103.971 7.71538 104.664 7.71538C105.175 7.71538 105.695 7.83913 106.223 8.08662C106.768 8.31761 107.205 8.6311 107.535 9.02709C107.584 9.10959 107.609 9.19208 107.609 9.27458Z" fill="#95979D"/>
<path d="M121.592 8.4446H125.678L131.149 21.8001H131.365L136.837 8.4446H140.923V26.876H137.719V14.2134H137.548L132.454 26.822H130.06L124.967 14.1864H124.796V26.876H121.592V8.4446ZM151.712 27.146C150.362 27.146 149.192 26.849 148.202 26.255C147.212 25.661 146.444 24.83 145.898 23.7621C145.358 22.6941 145.088 21.4462 145.088 20.0182C145.088 18.5903 145.358 17.3393 145.898 16.2653C146.444 15.1914 147.212 14.3574 148.202 13.7634C149.192 13.1694 150.362 12.8724 151.712 12.8724C153.062 12.8724 154.232 13.1694 155.222 13.7634C156.212 14.3574 156.977 15.1914 157.517 16.2653C158.063 17.3393 158.336 18.5903 158.336 20.0182C158.336 21.4462 158.063 22.6941 157.517 23.7621C156.977 24.83 156.212 25.661 155.222 26.255C154.232 26.849 153.062 27.146 151.712 27.146ZM151.73 24.5361C152.462 24.5361 153.074 24.3351 153.566 23.9331C154.058 23.5251 154.424 22.9791 154.664 22.2951C154.91 21.6112 155.033 20.8492 155.033 20.0092C155.033 19.1632 154.91 18.3983 154.664 17.7143C154.424 17.0243 154.058 16.4753 153.566 16.0673C153.074 15.6594 152.462 15.4554 151.73 15.4554C150.98 15.4554 150.356 15.6594 149.858 16.0673C149.366 16.4753 148.997 17.0243 148.751 17.7143C148.511 18.3983 148.391 19.1632 148.391 20.0092C148.391 20.8492 148.511 21.6112 148.751 22.2951C148.997 22.9791 149.366 23.5251 149.858 23.9331C150.356 24.3351 150.98 24.5361 151.73 24.5361ZM167.498 27.119C166.412 27.119 165.44 26.84 164.582 26.282C163.724 25.724 163.046 24.914 162.548 23.8521C162.05 22.7901 161.801 21.5002 161.801 19.9822C161.801 18.4463 162.053 17.1503 162.557 16.0943C163.067 15.0324 163.754 14.2314 164.618 13.6914C165.482 13.1454 166.445 12.8724 167.507 12.8724C168.317 12.8724 168.983 13.0104 169.505 13.2864C170.027 13.5564 170.441 13.8834 170.747 14.2674C171.053 14.6454 171.29 15.0024 171.458 15.3384H171.593V8.4446H174.86V26.876H171.656V24.6981H171.458C171.29 25.034 171.047 25.391 170.729 25.769C170.411 26.141 169.991 26.459 169.469 26.723C168.947 26.987 168.29 27.119 167.498 27.119ZM168.407 24.4461C169.097 24.4461 169.685 24.2601 170.171 23.8881C170.657 23.5101 171.026 22.9851 171.278 22.3131C171.53 21.6412 171.656 20.8582 171.656 19.9642C171.656 19.0702 171.53 18.2933 171.278 17.6333C171.032 16.9733 170.666 16.4603 170.18 16.0943C169.7 15.7284 169.109 15.5454 168.407 15.5454C167.681 15.5454 167.075 15.7344 166.589 16.1123C166.103 16.4903 165.737 17.0123 165.491 17.6783C165.245 18.3443 165.122 19.1062 165.122 19.9642C165.122 20.8282 165.245 21.5992 165.491 22.2771C165.743 22.9491 166.112 23.4801 166.598 23.8701C167.09 24.2541 167.693 24.4461 168.407 24.4461ZM185.718 27.146C184.332 27.146 183.135 26.858 182.127 26.282C181.125 25.7 180.354 24.878 179.814 23.8161C179.274 22.7481 179.004 21.4912 179.004 20.0452C179.004 18.6233 179.274 17.3753 179.814 16.3013C180.36 15.2214 181.122 14.3814 182.1 13.7814C183.078 13.1754 184.227 12.8724 185.547 12.8724C186.399 12.8724 187.203 13.0104 187.959 13.2864C188.721 13.5564 189.393 13.9764 189.975 14.5464C190.563 15.1164 191.025 15.8423 191.361 16.7243C191.697 17.6003 191.865 18.6443 191.865 19.8562V20.8552H180.534V18.6593H188.742C188.736 18.0353 188.601 17.4803 188.337 16.9943C188.073 16.5023 187.704 16.1153 187.23 15.8333C186.762 15.5514 186.216 15.4104 185.592 15.4104C184.926 15.4104 184.341 15.5724 183.837 15.8963C183.333 16.2143 182.94 16.6343 182.658 17.1563C182.382 17.6723 182.241 18.2393 182.235 18.8572V20.7742C182.235 21.5782 182.382 22.2681 182.676 22.8441C182.97 23.4141 183.381 23.8521 183.909 24.1581C184.437 24.4581 185.055 24.6081 185.763 24.6081C186.237 24.6081 186.666 24.5421 187.05 24.4101C187.434 24.2721 187.767 24.0711 188.049 23.8071C188.331 23.5431 188.544 23.2161 188.688 22.8261L191.73 23.1681C191.538 23.9721 191.172 24.6741 190.632 25.274C190.098 25.868 189.414 26.33 188.58 26.66C187.746 26.984 186.792 27.146 185.718 27.146ZM199.146 8.4446V26.876H195.888V8.4446H199.146Z" fill="#95979D"/>
<path d="M12.1048 13.5114C12.0209 12.7255 11.6669 12.1135 11.0429 11.6755C10.4249 11.2375 9.62093 11.0185 8.63097 11.0185C7.93499 11.0185 7.33801 11.1235 6.84003 11.3335C6.34204 11.5435 5.96106 11.8285 5.69707 12.1885C5.43307 12.5485 5.29808 12.9594 5.29208 13.4214C5.29208 13.8054 5.37908 14.1384 5.55307 14.4204C5.73306 14.7024 5.97606 14.9424 6.28205 15.1404C6.58804 15.3324 6.92702 15.4944 7.29901 15.6264C7.671 15.7584 8.04599 15.8693 8.42397 15.9593L10.1519 16.3913C10.8479 16.5533 11.5169 16.7723 12.1588 17.0483C12.8068 17.3243 13.3858 17.6723 13.8958 18.0923C14.4118 18.5123 14.8198 19.0192 15.1197 19.6132C15.4197 20.2072 15.5697 20.9032 15.5697 21.7012C15.5697 22.7811 15.2937 23.7321 14.7418 24.5541C14.1898 25.37 13.3918 26.009 12.3478 26.471C11.3099 26.927 10.0529 27.155 8.57697 27.155C7.14302 27.155 5.89806 26.933 4.84209 26.489C3.79213 26.045 2.97016 25.397 2.37618 24.5451C1.7882 23.6931 1.47021 22.6551 1.42221 21.4312H4.7071C4.7551 22.0731 4.95309 22.6071 5.30108 23.0331C5.64907 23.4591 6.10205 23.7771 6.66003 23.9871C7.22401 24.1971 7.85399 24.3021 8.54997 24.3021C9.27595 24.3021 9.91192 24.1941 10.4579 23.9781C11.0099 23.7561 11.4419 23.4501 11.7539 23.0601C12.0659 22.6641 12.2248 22.2021 12.2308 21.6742C12.2248 21.1942 12.0839 20.7982 11.8079 20.4862C11.5319 20.1682 11.1449 19.9042 10.6469 19.6942C10.1549 19.4782 9.57893 19.2862 8.91896 19.1182L6.82203 18.5783C5.30408 18.1883 4.10412 17.5973 3.22215 16.8053C2.34618 16.0073 1.90819 14.9484 1.90819 13.6284C1.90819 12.5425 2.20218 11.5915 2.79016 10.7755C3.38414 9.95955 4.19112 9.32657 5.21108 8.87658C6.23105 8.4206 7.38601 8.19261 8.67597 8.19261C9.98392 8.19261 11.1299 8.4206 12.1138 8.87658C13.1038 9.32657 13.8808 9.95355 14.4448 10.7575C15.0088 11.5555 15.2997 12.4735 15.3177 13.5114H12.1048ZM19.6695 32.0598V13.0524H22.8734V15.3384H23.0624C23.2304 15.0024 23.4674 14.6454 23.7734 14.2674C24.0794 13.8834 24.4934 13.5564 25.0154 13.2864C25.5373 13.0104 26.2033 12.8724 27.0133 12.8724C28.0813 12.8724 29.0442 13.1454 29.9022 13.6914C30.7662 14.2314 31.4501 15.0324 31.9541 16.0943C32.4641 17.1503 32.7191 18.4463 32.7191 19.9822C32.7191 21.5002 32.4701 22.7901 31.9721 23.8521C31.4741 24.914 30.7962 25.724 29.9382 26.282C29.0802 26.84 28.1083 27.119 27.0223 27.119C26.2303 27.119 25.5733 26.987 25.0514 26.723C24.5294 26.459 24.1094 26.141 23.7914 25.769C23.4794 25.391 23.2364 25.034 23.0624 24.6981H22.9274V32.0598H19.6695ZM22.8644 19.9642C22.8644 20.8582 22.9904 21.6412 23.2424 22.3131C23.5004 22.9851 23.8694 23.5101 24.3494 23.8881C24.8354 24.2601 25.4233 24.4461 26.1133 24.4461C26.8333 24.4461 27.4363 24.2541 27.9223 23.8701C28.4082 23.4801 28.7742 22.9491 29.0202 22.2771C29.2722 21.5992 29.3982 20.8282 29.3982 19.9642C29.3982 19.1062 29.2752 18.3443 29.0292 17.6783C28.7832 17.0123 28.4172 16.4903 27.9313 16.1123C27.4453 15.7344 26.8393 15.5454 26.1133 15.5454C25.4173 15.5454 24.8264 15.7284 24.3404 16.0943C23.8544 16.4603 23.4854 16.9733 23.2334 17.6333C22.9874 18.2933 22.8644 19.0702 22.8644 19.9642ZM42.806 27.146C41.456 27.146 40.286 26.849 39.2961 26.255C38.3061 25.661 37.5381 24.83 36.9922 23.7621C36.4522 22.6941 36.1822 21.4462 36.1822 20.0182C36.1822 18.5903 36.4522 17.3393 36.9922 16.2653C37.5381 15.1914 38.3061 14.3574 39.2961 13.7634C40.286 13.1694 41.456 12.8724 42.806 12.8724C44.1559 12.8724 45.3259 13.1694 46.3158 13.7634C47.3058 14.3574 48.0708 15.1914 48.6108 16.2653C49.1567 17.3393 49.4297 18.5903 49.4297 20.0182C49.4297 21.4462 49.1567 22.6941 48.6108 23.7621C48.0708 24.83 47.3058 25.661 46.3158 26.255C45.3259 26.849 44.1559 27.146 42.806 27.146ZM42.824 24.5361C43.5559 24.5361 44.1679 24.3351 44.6599 23.9331C45.1519 23.5251 45.5179 22.9791 45.7579 22.2951C46.0039 21.6112 46.1269 20.8492 46.1269 20.0092C46.1269 19.1632 46.0039 18.3983 45.7579 17.7143C45.5179 17.0243 45.1519 16.4753 44.6599 16.0673C44.1679 15.6594 43.5559 15.4554 42.824 15.4554C42.074 15.4554 41.45 15.6594 40.952 16.0673C40.46 16.4753 40.0911 17.0243 39.8451 17.7143C39.6051 18.3983 39.4851 19.1632 39.4851 20.0092C39.4851 20.8492 39.6051 21.6112 39.8451 22.2951C40.0911 22.9791 40.46 23.5251 40.952 23.9331C41.45 24.3351 42.074 24.5361 42.824 24.5361ZM53.4621 26.876V13.0524H56.6209V15.3564H56.7649C57.0169 14.5584 57.4489 13.9434 58.0609 13.5114C58.6789 13.0734 59.3839 12.8544 60.1758 12.8544C60.3558 12.8544 60.5568 12.8634 60.7788 12.8814C61.0068 12.8934 61.1958 12.9144 61.3458 12.9444V15.9413C61.2078 15.8933 60.9888 15.8513 60.6888 15.8153C60.3948 15.7734 60.1098 15.7524 59.8338 15.7524C59.2399 15.7524 58.7059 15.8813 58.2319 16.1393C57.7639 16.3913 57.3949 16.7423 57.1249 17.1923C56.8549 17.6423 56.7199 18.1613 56.7199 18.7493V26.876H53.4621ZM72.4226 13.0524V15.5724H64.4759V13.0524H72.4226ZM66.4378 9.74055H69.6957V22.7181C69.6957 23.1561 69.7617 23.4921 69.8937 23.7261C70.0317 23.9541 70.2117 24.1101 70.4337 24.1941C70.6557 24.2781 70.9017 24.3201 71.1717 24.3201C71.3757 24.3201 71.5616 24.3051 71.7296 24.2751C71.9036 24.2451 72.0356 24.2181 72.1256 24.1941L72.6746 26.741C72.5006 26.801 72.2516 26.867 71.9276 26.939C71.6096 27.011 71.2197 27.053 70.7577 27.065C69.9417 27.089 69.2067 26.966 68.5527 26.696C67.8988 26.42 67.3798 25.994 66.9958 25.418C66.6178 24.842 66.4318 24.1221 66.4378 23.2581V9.74055ZM84.3477 17.8583V20.5402H76.0499V17.8583H84.3477Z" fill="#95979D"/>
</g>
<defs>
<clipPath id="clip0_184_2445">
<rect width="200" height="40" fill="white" transform="translate(0.185303)"/>
</clipPath>
</defs>
</svg>
