<svg width="46" height="40" viewBox="0 0 46 40" fill="none" xmlns="http://www.w3.org/2000/svg">
<path d="M26.573 0C30.0838 0 31.8395 0.000351011 33.1804 0.683594C34.3598 1.2846 35.3187 2.24342 35.9197 3.42285C36.6029 4.76378 36.6033 6.51954 36.6033 10.0303V17.7314C36.6033 21.2422 36.6029 22.9979 35.9197 24.3389C35.3187 25.5182 34.3598 26.4772 33.1804 27.0781C31.8395 27.7614 30.0838 27.7607 26.573 27.7607H18.8718C15.361 27.7607 13.6053 27.7614 12.2644 27.0781C11.085 26.4772 10.1261 25.5182 9.52515 24.3389C8.84191 22.9979 8.84155 21.2422 8.84155 17.7314V10.0303C8.84155 6.51952 8.84192 4.76379 9.52515 3.42285C10.1261 2.24341 11.085 1.2846 12.2644 0.683594C13.6053 0.000351011 15.361 0 18.8718 0H26.573ZM19.0046 5.99414C19.0045 5.66539 18.7804 5.50163 18.5046 5.62891L14.0818 7.66699C13.8038 7.79511 13.5819 8.16443 13.5818 8.49414V21.5967C13.5818 21.9264 13.8052 22.09 14.0818 21.9619L18.5046 19.9248C18.782 19.7967 19.0046 19.4274 19.0046 19.0977V5.99414ZM20.4138 5.62988C20.1372 5.50176 19.9128 5.66532 19.9128 5.99512V19.0977C19.913 19.4273 20.1359 19.7967 20.4138 19.9248L24.8357 21.9629C25.1123 22.0902 25.3367 21.9257 25.3367 21.5967V8.49414C25.3367 8.16435 25.1137 7.79511 24.8357 7.66699L20.4138 5.62988ZM31.6941 5.99512C31.6941 5.66532 31.4697 5.50176 31.1931 5.62988L26.7703 7.66699C26.493 7.79515 26.2703 8.16439 26.2703 8.49414V21.5967C26.2703 21.9256 26.4944 22.0901 26.7703 21.9629L31.1931 19.9248C31.4711 19.7967 31.6939 19.4273 31.6941 19.0977V5.99512Z" fill="#95979D"/>
<path d="M2.70984 38.3377C2.26091 38.3377 1.87291 38.2404 1.54583 38.0459C1.21876 37.8513 0.966503 37.5745 0.78907 37.2154C0.611637 36.8541 0.52292 36.4244 0.52292 35.9263V35.9199C0.52292 35.4218 0.611637 34.9932 0.78907 34.634C0.966503 34.2728 1.21876 33.9959 1.54583 33.8035C1.87291 33.609 2.26091 33.5117 2.70984 33.5117C3.07967 33.5117 3.40995 33.5844 3.70068 33.7298C3.99356 33.8751 4.22978 34.0739 4.40935 34.3262C4.58892 34.5785 4.69367 34.8681 4.7236 35.1952V35.2305H3.78085L3.77444 35.192C3.74023 35.0188 3.67503 34.8681 3.57883 34.7399C3.48263 34.6116 3.36078 34.5122 3.21328 34.4416C3.06577 34.369 2.89796 34.3326 2.70984 34.3326C2.464 34.3326 2.25129 34.3967 2.07172 34.525C1.89429 34.6533 1.7564 34.8361 1.65806 35.0733C1.55973 35.3106 1.51056 35.5928 1.51056 35.9199V35.9231C1.51056 36.2502 1.55973 36.5334 1.65806 36.7729C1.7564 37.0101 1.89535 37.194 2.07493 37.3244C2.2545 37.4527 2.4672 37.5168 2.71304 37.5168C2.89903 37.5168 3.0647 37.4826 3.21007 37.4142C3.35758 37.3458 3.47943 37.2485 3.57563 37.1224C3.67396 36.9962 3.7413 36.8466 3.77764 36.6734L3.78406 36.6414H4.7268L4.7236 36.6767C4.69367 37.0037 4.58892 37.2923 4.40935 37.5424C4.23191 37.7904 3.99783 37.985 3.7071 38.126C3.41636 38.2671 3.08394 38.3377 2.70984 38.3377ZM6.9522 38.312C6.59947 38.312 6.29377 38.2394 6.03511 38.094C5.77858 37.9486 5.58083 37.7413 5.44188 37.4719C5.30293 37.2004 5.23345 36.8765 5.23345 36.5003V36.4939C5.23345 36.1198 5.304 35.798 5.44509 35.5287C5.58618 35.2572 5.78499 35.0488 6.04152 34.9034C6.29805 34.758 6.60161 34.6853 6.9522 34.6853C7.30279 34.6853 7.60635 34.758 7.86288 34.9034C8.12155 35.0466 8.32143 35.254 8.46252 35.5255C8.60361 35.7948 8.67416 36.1176 8.67416 36.4939V36.5003C8.67416 36.8787 8.60468 37.2036 8.46573 37.4751C8.32677 37.7445 8.12796 37.9518 7.86929 38.0972C7.61276 38.2404 7.30707 38.312 6.9522 38.312ZM6.95541 37.5777C7.1136 37.5777 7.24935 37.535 7.36265 37.4495C7.47809 37.3639 7.56573 37.241 7.62559 37.0807C7.68759 36.9204 7.71858 36.7269 7.71858 36.5003V36.4939C7.71858 36.2673 7.68759 36.0738 7.62559 35.9135C7.5636 35.7531 7.47488 35.6313 7.35944 35.5479C7.24614 35.4624 7.11039 35.4197 6.9522 35.4197C6.79614 35.4197 6.6604 35.4624 6.54496 35.5479C6.42952 35.6313 6.3408 35.7531 6.27881 35.9135C6.21681 36.0738 6.18582 36.2673 6.18582 36.4939V36.5003C6.18582 36.7269 6.21681 36.9214 6.27881 37.0839C6.3408 37.2442 6.42845 37.3671 6.54175 37.4527C6.65719 37.536 6.79508 37.5777 6.95541 37.5777ZM10.0658 38.2383L8.86014 34.7559H9.86061L10.5853 37.3885H10.6238L11.3389 34.7559H12.3201L11.1208 38.2383H10.0658ZM14.212 38.312C13.8593 38.312 13.5546 38.2394 13.2981 38.094C13.0437 37.9465 12.8481 37.738 12.7113 37.4687C12.5745 37.1972 12.5061 36.8755 12.5061 36.5035V36.5003C12.5061 36.1305 12.5745 35.8098 12.7113 35.5383C12.8481 35.2668 13.0416 35.0573 13.2917 34.9098C13.5418 34.7602 13.8358 34.6853 14.1735 34.6853C14.5134 34.6853 14.8063 34.758 15.0521 34.9034C15.3001 35.0466 15.4914 35.2497 15.6261 35.5127C15.7608 35.7735 15.8281 36.0792 15.8281 36.4297V36.7215H12.9678V36.1315H15.3824L14.9399 36.6863V36.3175C14.9399 36.1123 14.9078 35.9402 14.8437 35.8012C14.7817 35.6623 14.6941 35.5586 14.5808 35.4902C14.4696 35.4197 14.3392 35.3844 14.1895 35.3844C14.042 35.3844 13.9106 35.4207 13.7951 35.4934C13.6818 35.564 13.592 35.6698 13.5258 35.8109C13.4616 35.9498 13.4296 36.1187 13.4296 36.3175V36.6895C13.4296 36.8819 13.4616 37.0476 13.5258 37.1865C13.592 37.3233 13.685 37.4281 13.8048 37.5008C13.9245 37.5734 14.0666 37.6098 14.2312 37.6098C14.3638 37.6098 14.4771 37.5905 14.5711 37.5521C14.6673 37.5114 14.7443 37.4623 14.802 37.4046C14.8619 37.3447 14.9025 37.287 14.9239 37.2314L14.9335 37.2122H15.7993L15.7897 37.2474C15.764 37.3671 15.7138 37.489 15.6389 37.613C15.5663 37.737 15.4658 37.8524 15.3375 37.9593C15.2114 38.0641 15.0553 38.1496 14.8694 38.2158C14.6834 38.28 14.4643 38.312 14.212 38.312ZM16.4438 38.2383V34.7559H17.3801V35.3331H17.4186C17.4721 35.13 17.5704 34.9729 17.7136 34.8617C17.8569 34.7484 18.0354 34.6918 18.2491 34.6918C18.3069 34.6918 18.3624 34.696 18.4159 34.7046C18.4715 34.711 18.5185 34.7206 18.557 34.7334V35.5543C18.5057 35.5372 18.4469 35.5244 18.3806 35.5159C18.3143 35.5052 18.2459 35.4998 18.1754 35.4998C18.0108 35.4998 17.8686 35.5319 17.7489 35.596C17.6313 35.658 17.5405 35.7478 17.4763 35.8654C17.4122 35.9808 17.3801 36.1219 17.3801 36.2887V38.2383H16.4438ZM19.9775 38.2928C19.7509 38.2928 19.551 38.249 19.3779 38.1613C19.2047 38.0737 19.069 37.9508 18.9706 37.7926C18.8723 37.6344 18.8231 37.4516 18.8231 37.2442V37.2378C18.8231 37.0283 18.8755 36.8487 18.9802 36.6991C19.0871 36.5495 19.241 36.4319 19.442 36.3464C19.6429 36.2587 19.8877 36.2064 20.1763 36.1892L21.5039 36.1059V36.6831L20.3174 36.76C20.1271 36.7707 19.9839 36.8135 19.8877 36.8883C19.7915 36.9631 19.7434 37.0625 19.7434 37.1865V37.1929C19.7434 37.3233 19.7937 37.4259 19.8941 37.5008C19.9946 37.5734 20.125 37.6098 20.2853 37.6098C20.4286 37.6098 20.5558 37.582 20.6669 37.5264C20.7781 37.4708 20.8657 37.3949 20.9299 37.2987C20.9961 37.2004 21.0293 37.0903 21.0293 36.9685V35.8878C21.0293 35.7339 20.979 35.6142 20.8786 35.5287C20.7802 35.4432 20.637 35.4004 20.4489 35.4004C20.2779 35.4004 20.14 35.4336 20.0352 35.4998C19.9305 35.564 19.8631 35.6505 19.8332 35.7596L19.8268 35.7788H18.9674L18.9706 35.7467C18.992 35.5351 19.0658 35.3502 19.1919 35.192C19.3201 35.0338 19.4944 34.9098 19.7146 34.82C19.9347 34.7302 20.1945 34.6853 20.4938 34.6853C20.7973 34.6853 21.0581 34.7334 21.2762 34.8296C21.4964 34.9237 21.6653 35.0584 21.7828 35.2337C21.9004 35.409 21.9592 35.6163 21.9592 35.8558V38.2383H21.0293V37.7477H20.9908C20.9288 37.861 20.8476 37.9582 20.7471 38.0395C20.6466 38.1207 20.5312 38.1838 20.4008 38.2287C20.2704 38.2714 20.1293 38.2928 19.9775 38.2928ZM24.2936 39.4536C23.973 39.4536 23.6961 39.4108 23.4631 39.3253C23.2301 39.2398 23.0452 39.1222 22.9084 38.9726C22.7737 38.823 22.6924 38.653 22.6647 38.4627V38.4371H23.5817L23.5882 38.4563C23.6202 38.5483 23.6972 38.6263 23.819 38.6904C23.9409 38.7545 24.1023 38.7866 24.3032 38.7866C24.5491 38.7866 24.7372 38.73 24.8676 38.6167C25.0001 38.5034 25.0664 38.3473 25.0664 38.1485V37.5585H25.0311C24.9691 37.6825 24.8858 37.7883 24.781 37.8759C24.6784 37.9614 24.5587 38.0266 24.4219 38.0715C24.2851 38.1164 24.1344 38.1389 23.9697 38.1389C23.679 38.1389 23.4278 38.0694 23.2162 37.9304C23.0046 37.7915 22.841 37.5948 22.7256 37.3404C22.6123 37.086 22.5556 36.7867 22.5556 36.4426V36.4362C22.5556 36.0792 22.6133 35.7713 22.7288 35.5127C22.8442 35.2518 23.0088 35.0498 23.2226 34.9066C23.4364 34.7634 23.6908 34.6918 23.9858 34.6918C24.1483 34.6918 24.2968 34.7185 24.4315 34.7719C24.5662 34.8254 24.6848 34.9002 24.7874 34.9964C24.89 35.0926 24.9724 35.207 25.0343 35.3395H25.0664V34.7559H26.0027V38.1357C26.0027 38.4008 25.9333 38.6316 25.7943 38.8283C25.6554 39.0271 25.4576 39.181 25.2011 39.2901C24.9446 39.3991 24.6421 39.4536 24.2936 39.4536ZM24.2904 37.4398C24.4507 37.4398 24.5886 37.3992 24.7041 37.318C24.8216 37.2346 24.9125 37.1192 24.9766 36.9717C25.0408 36.8242 25.0728 36.651 25.0728 36.4522V36.4458C25.0728 36.247 25.0408 36.0738 24.9766 35.9263C24.9125 35.7788 24.8216 35.6644 24.7041 35.5832C24.5886 35.502 24.4507 35.4613 24.2904 35.4613C24.1301 35.4613 23.9911 35.502 23.8735 35.5832C23.7581 35.6644 23.6683 35.7788 23.6042 35.9263C23.5422 36.0717 23.5112 36.2448 23.5112 36.4458V36.449C23.5112 36.6499 23.5422 36.8252 23.6042 36.9749C23.6683 37.1224 23.7581 37.2367 23.8735 37.318C23.9911 37.3992 24.1301 37.4398 24.2904 37.4398ZM28.3276 38.312C27.9748 38.312 27.6702 38.2394 27.4137 38.094C27.1593 37.9465 26.9637 37.738 26.8269 37.4687C26.69 37.1972 26.6216 36.8755 26.6216 36.5035V36.5003C26.6216 36.1305 26.69 35.8098 26.8269 35.5383C26.9637 35.2668 27.1571 35.0573 27.4073 34.9098C27.6574 34.7602 27.9513 34.6853 28.2891 34.6853C28.629 34.6853 28.9218 34.758 29.1677 34.9034C29.4157 35.0466 29.607 35.2497 29.7417 35.5127C29.8764 35.7735 29.9437 36.0792 29.9437 36.4297V36.7215H27.0834V36.1315H29.498L29.0555 36.6863V36.3175C29.0555 36.1123 29.0234 35.9402 28.9593 35.8012C28.8973 35.6623 28.8096 35.5586 28.6963 35.4902C28.5852 35.4197 28.4547 35.3844 28.3051 35.3844C28.1576 35.3844 28.0261 35.4207 27.9107 35.4934C27.7974 35.564 27.7076 35.6698 27.6413 35.8109C27.5772 35.9498 27.5451 36.1187 27.5451 36.3175V36.6895C27.5451 36.8819 27.5772 37.0476 27.6413 37.1865C27.7076 37.3233 27.8006 37.4281 27.9203 37.5008C28.04 37.5734 28.1822 37.6098 28.3468 37.6098C28.4793 37.6098 28.5926 37.5905 28.6867 37.5521C28.7829 37.5114 28.8599 37.4623 28.9176 37.4046C28.9774 37.3447 29.018 37.287 29.0394 37.2314L29.049 37.2122H29.9148L29.9052 37.2474C29.8796 37.3671 29.8293 37.489 29.7545 37.613C29.6818 37.737 29.5813 37.8524 29.4531 37.9593C29.3269 38.0641 29.1709 38.1496 28.9849 38.2158C28.7989 38.28 28.5798 38.312 28.3276 38.312ZM32.1338 38.2383V33.6111H33.2465L34.5452 36.9653H34.5837L35.8792 33.6111H36.9918V38.2383H36.1293V35.099H35.6707L36.6167 33.7394L34.8659 38.2383H34.2598L32.5122 33.7394L33.4581 35.099H32.9964V38.2383H32.1338ZM38.8004 38.2928C38.5738 38.2928 38.3739 38.249 38.2007 38.1613C38.0276 38.0737 37.8918 37.9508 37.7935 37.7926C37.6952 37.6344 37.646 37.4516 37.646 37.2442V37.2378C37.646 37.0283 37.6984 36.8487 37.8031 36.6991C37.91 36.5495 38.0639 36.4319 38.2649 36.3464C38.4658 36.2587 38.7106 36.2064 38.9992 36.1892L40.3267 36.1059V36.6831L39.1403 36.76C38.95 36.7707 38.8068 36.8135 38.7106 36.8883C38.6144 36.9631 38.5663 37.0625 38.5663 37.1865V37.1929C38.5663 37.3233 38.6165 37.4259 38.717 37.5008C38.8175 37.5734 38.9479 37.6098 39.1082 37.6098C39.2514 37.6098 39.3786 37.582 39.4898 37.5264C39.601 37.4708 39.6886 37.3949 39.7527 37.2987C39.819 37.2004 39.8522 37.0903 39.8522 36.9685V35.8878C39.8522 35.7339 39.8019 35.6142 39.7014 35.5287C39.6031 35.4432 39.4599 35.4004 39.2718 35.4004C39.1007 35.4004 38.9629 35.4336 38.8581 35.4998C38.7534 35.564 38.686 35.6505 38.6561 35.7596L38.6497 35.7788H37.7903L37.7935 35.7467C37.8149 35.5351 37.8886 35.3502 38.0148 35.192C38.143 35.0338 38.3172 34.9098 38.5374 34.82C38.7576 34.7302 39.0174 34.6853 39.3166 34.6853C39.6202 34.6853 39.881 34.7334 40.0991 34.8296C40.3193 34.9237 40.4881 35.0584 40.6057 35.2337C40.7233 35.409 40.7821 35.6163 40.7821 35.8558V38.2383H39.8522V37.7477H39.8137C39.7517 37.861 39.6704 37.9582 39.57 38.0395C39.4695 38.1207 39.3541 38.1838 39.2237 38.2287C39.0933 38.2714 38.9522 38.2928 38.8004 38.2928ZM41.5324 39.383V34.7559H42.4688V35.3331H42.5072C42.5692 35.1984 42.6505 35.084 42.7509 34.99C42.8536 34.8938 42.9733 34.82 43.1101 34.7687C43.2469 34.7174 43.3965 34.6918 43.559 34.6918C43.8519 34.6918 44.1041 34.7644 44.3158 34.9098C44.5274 35.0552 44.6899 35.2625 44.8032 35.5319C44.9186 35.7991 44.9763 36.1198 44.9763 36.4939V36.5003C44.9763 36.8744 44.9197 37.1961 44.8064 37.4655C44.6931 37.7348 44.5306 37.9422 44.319 38.0876C44.1095 38.2308 43.8594 38.3024 43.5686 38.3024C43.4062 38.3024 43.2555 38.2768 43.1165 38.2255C42.9775 38.1741 42.8568 38.1004 42.7541 38.0042C42.6515 37.908 42.5692 37.7947 42.5072 37.6643H42.4688V39.383H41.5324ZM43.248 37.5264C43.4083 37.5264 43.5462 37.4847 43.6616 37.4014C43.7792 37.318 43.869 37.2004 43.931 37.0486C43.993 36.8947 44.024 36.7119 44.024 36.5003V36.4939C44.024 36.2801 43.9919 36.0973 43.9278 35.9455C43.8658 35.7916 43.776 35.6741 43.6584 35.5928C43.543 35.5094 43.4062 35.4678 43.248 35.4678C43.0898 35.4678 42.9519 35.5094 42.8343 35.5928C42.7167 35.6762 42.6248 35.7948 42.5585 35.9488C42.4944 36.1005 42.4623 36.2822 42.4623 36.4939V36.5003C42.4623 36.7098 42.4944 36.8915 42.5585 37.0454C42.6248 37.1993 42.7167 37.318 42.8343 37.4014C42.9519 37.4847 43.0898 37.5264 43.248 37.5264Z" fill="#95979D"/>
</svg>
