<svg width="50" height="50" viewBox="0 0 50 50" fill="none" xmlns="http://www.w3.org/2000/svg">
<path d="M20.8327 16.6668C20.8327 20.5952 20.8327 22.5594 19.6123 23.7798C18.3919 25.0002 16.4277 25.0002 12.4993 25.0002C8.57098 25.0002 6.60679 25.0002 5.3864 23.7798C4.16602 22.5594 4.16602 20.5952 4.16602 16.6668C4.16602 12.7385 4.16602 10.7743 5.3864 9.55388C6.60679 8.3335 8.57098 8.3335 12.4994 8.3335C16.4277 8.3335 18.3919 8.3335 19.6123 9.55388C20.8327 10.7743 20.8327 12.7385 20.8327 16.6668Z" stroke="#0B1414" stroke-width="4"/>
<path d="M20.834 14.5832L20.834 23.9209C20.834 32.1971 15.5929 39.2158 8.33398 41.6665" stroke="#0B1414" stroke-width="4" stroke-linecap="round"/>
<path d="M45.8327 16.6668C45.8327 20.5952 45.8327 22.5594 44.6123 23.7798C43.3919 25.0002 41.4277 25.0002 37.4993 25.0002C33.571 25.0002 31.6068 25.0002 30.3864 23.7798C29.166 22.5594 29.166 20.5952 29.166 16.6668C29.166 12.7385 29.166 10.7743 30.3864 9.55388C31.6068 8.3335 33.571 8.3335 37.4994 8.3335C41.4277 8.3335 43.3919 8.3335 44.6123 9.55388C45.8327 10.7743 45.8327 12.7385 45.8327 16.6668Z" stroke="#0B1414" stroke-width="4"/>
<path d="M45.834 14.5832L45.834 23.9209C45.834 32.1971 40.5929 39.2158 33.334 41.6665" stroke="#0B1414" stroke-width="4" stroke-linecap="round"/>
</svg>
