<svg width="928" height="562" viewBox="0 0 928 562" fill="none" xmlns="http://www.w3.org/2000/svg">
<g filter="url(#filter0_f_74_10671)">
<rect x="164" y="164" width="600" height="233.787" rx="116.894" fill="url(#paint0_linear_74_10671)"/>
</g>
<rect x="213.046" y="203.237" width="501.907" height="155.313" rx="77.6567" fill="url(#paint1_linear_74_10671)"/>
<path d="M309.763 254.736C309.763 247.512 315.619 241.657 322.842 241.657H335.921V267.815H322.842C315.619 267.815 309.763 261.959 309.763 254.736V254.736Z" stroke="#0B1414" stroke-width="6.53951"/>
<path d="M362.079 254.736C362.079 247.512 356.223 241.657 349 241.657H335.921V267.815H349C356.223 267.815 362.079 261.959 362.079 254.736V254.736Z" stroke="#0B1414" stroke-width="6.53951"/>
<path d="M362.079 280.894C362.079 273.67 356.223 267.815 349 267.815V267.815C341.776 267.815 335.921 273.67 335.921 280.894V280.894C335.921 288.117 341.776 293.973 349 293.973V293.973C356.223 293.973 362.079 288.117 362.079 280.894V280.894Z" stroke="#0B1414" stroke-width="6.53951"/>
<path d="M309.763 280.894C309.763 273.67 315.619 267.815 322.842 267.815H335.921V293.973H322.842C315.619 293.973 309.763 288.117 309.763 280.894V280.894Z" stroke="#0B1414" stroke-width="6.53951"/>
<path d="M309.763 307.052C309.763 299.828 315.619 293.973 322.842 293.973H335.921V307.052C335.921 314.275 330.065 320.131 322.842 320.131V320.131C315.619 320.131 309.763 314.275 309.763 307.052V307.052Z" stroke="#0B1414" stroke-width="6.53951"/>
<path d="M424.237 256.138V264.274H403.285V277.162H419.341V285.154H403.285V306.394H393.205V256.138H424.237ZM441.465 256.138V306.394H431.385V256.138H441.465ZM486.416 271.258C485.264 269.146 483.68 267.538 481.664 266.434C479.648 265.33 477.296 264.778 474.608 264.778C471.632 264.778 468.992 265.45 466.688 266.794C464.384 268.138 462.584 270.058 461.288 272.554C459.992 275.05 459.344 277.93 459.344 281.194C459.344 284.554 459.992 287.482 461.288 289.978C462.632 292.474 464.48 294.394 466.832 295.738C469.184 297.082 471.92 297.754 475.04 297.754C478.88 297.754 482.024 296.746 484.472 294.73C486.92 292.666 488.528 289.81 489.296 286.162H472.016V278.458H499.232V287.242C498.56 290.746 497.12 293.986 494.912 296.962C492.704 299.938 489.848 302.338 486.344 304.162C482.888 305.938 479 306.826 474.68 306.826C469.832 306.826 465.44 305.746 461.504 303.586C457.616 301.378 454.544 298.33 452.288 294.442C450.08 290.554 448.976 286.138 448.976 281.194C448.976 276.25 450.08 271.834 452.288 267.946C454.544 264.01 457.616 260.962 461.504 258.802C465.44 256.594 469.808 255.49 474.608 255.49C480.272 255.49 485.192 256.882 489.368 259.666C493.544 262.402 496.424 266.266 498.008 271.258H486.416ZM561.481 256.138V306.394H551.401V273.706L537.937 306.394H530.305L516.769 273.706V306.394H506.689V256.138H518.137L534.121 293.506L550.105 256.138H561.481ZM602.263 296.818H582.247L578.935 306.394H568.351L586.423 256.066H598.159L616.231 306.394H605.575L602.263 296.818ZM599.527 288.754L592.255 267.73L584.983 288.754H599.527Z" fill="#0B1414"/>
<defs>
<filter id="filter0_f_74_10671" x="0.512253" y="0.512253" width="926.975" height="560.763" filterUnits="userSpaceOnUse" color-interpolation-filters="sRGB">
<feFlood flood-opacity="0" result="BackgroundImageFix"/>
<feBlend mode="normal" in="SourceGraphic" in2="BackgroundImageFix" result="shape"/>
<feGaussianBlur stdDeviation="81.7439" result="effect1_foregroundBlur_74_10671"/>
</filter>
<linearGradient id="paint0_linear_74_10671" x1="773.528" y1="268.647" x2="446.797" y2="581.494" gradientUnits="userSpaceOnUse">
<stop stop-color="#FF4D12"/>
<stop offset="0.269231" stop-color="#FF7361"/>
<stop offset="0.514423" stop-color="#B659FF"/>
<stop offset="0.75" stop-color="#00BCFF"/>
<stop offset="1" stop-color="#00CF7F"/>
</linearGradient>
<linearGradient id="paint1_linear_74_10671" x1="722.924" y1="272.758" x2="509.406" y2="530.189" gradientUnits="userSpaceOnUse">
<stop stop-color="#FF4D12"/>
<stop offset="0.269231" stop-color="#FF7361"/>
<stop offset="0.514423" stop-color="#B659FF"/>
<stop offset="0.75" stop-color="#00BCFF"/>
<stop offset="1" stop-color="#00CF7F"/>
</linearGradient>
</defs>
</svg>
